<svg width="166" height="155" viewBox="0 0 166 155" fill="none" xmlns="http://www.w3.org/2000/svg">
<path d="M2.4011 26.6107C1.14108 18.7138 7.24191 11.5624 15.2387 11.5624L100.507 11.5624C106.896 11.5624 112.338 16.2049 113.345 22.514L128.084 114.888C129.344 122.785 123.243 129.936 115.246 129.936H29.9778C23.5888 129.936 18.1469 125.294 17.1402 118.985L2.4011 26.6107Z" fill="white" stroke="black" stroke-width="3"/>
<path d="M6.37278 21.6023C5.11276 13.7054 11.2136 6.55396 19.2104 6.55396L104.478 6.55396C110.867 6.55396 116.309 11.1964 117.316 17.5056L132.055 109.879C133.315 117.776 127.214 124.927 119.217 124.927H33.9494C27.5604 124.927 22.1185 120.285 21.1118 113.976L6.37278 21.6023Z" fill="white" stroke="black" stroke-width="3"/>
<path d="M79.4819 37.5605H104.911" stroke="black" stroke-width="3"/>
<path d="M89.6138 90.9629H115.043" stroke="black" stroke-width="3"/>
<path d="M82.1521 51.6835H107.582" stroke="black" stroke-width="3"/>
<path d="M92.2827 105.086H117.712" stroke="black" stroke-width="3"/>
<path d="M76.4585 24.0916H102.241" stroke="black" stroke-width="3"/>
<path d="M86.5898 77.4935H112.373" stroke="black" stroke-width="3"/>
<path d="M33.7964 88.3995C32.6323 80.5465 38.7171 73.4932 46.6559 73.4932H58.89C65.3334 73.4932 70.8046 78.2131 71.7495 84.5868L73.0747 93.5265C74.2389 101.379 68.154 108.433 60.2152 108.433H47.9812C41.5377 108.433 36.0666 103.713 35.1217 97.3391L33.7964 88.3995Z" fill="white" stroke="black" stroke-width="3"/>
<path d="M43.1288 90.4591L51.2866 98.9985L64.3871 82.1924" stroke="black" stroke-width="3" stroke-linejoin="round"/>
<path d="M23.8509 34.957C22.6867 27.104 28.7716 20.0507 36.7103 20.0507H48.9444C55.3879 20.0507 60.859 24.7706 61.8039 31.1443L63.1291 40.084C64.2933 47.9369 58.2085 54.9903 50.2697 54.9903H38.0356C31.5922 54.9903 26.121 50.2704 25.1761 43.8966L23.8509 34.957Z" fill="black" stroke="black" stroke-width="3"/>
<path d="M55.1529 46.5968L31.8257 28.4446" stroke="white" stroke-width="3" stroke-linejoin="round"/>
<path d="M34.6611 47.2865L52.6904 27.6741" stroke="white" stroke-width="3" stroke-linejoin="round"/>
<path d="M43.2284 9.15451C41.5103 5.61618 44.0875 1.5 48.0208 1.5L74.6496 1.5C76.6899 1.5 78.5509 2.66521 79.4421 4.50055C81.1601 8.03888 78.583 12.1551 74.6496 12.1551H48.0208C45.9806 12.1551 44.1195 10.9899 43.2284 9.15451Z" fill="#5780FA" stroke="black" stroke-width="3"/>
<path d="M128.347 52.959C133.655 54.3812 136.715 59.9333 135.083 65.1802L111.406 141.292C110.369 144.625 106.885 146.545 103.513 145.642C100.141 144.738 98.0841 141.334 98.8526 137.929L116.405 60.1755C117.615 54.8154 123.04 51.5369 128.347 52.959Z" fill="white" stroke="black" stroke-width="3"/>
<path d="M137.801 18.8192C151.937 22.6069 159.94 37.5421 155.265 51.4096L149.156 69.5271C145.12 81.5005 132.473 88.2768 120.268 85.0065C108.245 81.7846 100.695 69.888 102.9 57.6372L106.286 38.8196C108.914 24.2148 123.467 14.9787 137.801 18.8192Z" fill="#5780FA" stroke="black" stroke-width="3"/>
</svg>
