<svg width="264" height="219" viewBox="0 0 264 219" fill="none" xmlns="http://www.w3.org/2000/svg">
<g clip-path="url(#clip0_7_1574)">
<path d="M34.0462 154.067C34.5212 146.664 33.7067 139.319 35.032 131.859C37.0862 120.323 40.5351 109 40.1621 97.1371C39.8856 88.4695 42.0553 79.4671 41.9642 70.7529C41.8452 60.8109 50.0732 53.0394 60.4087 44.9062C75.7269 32.8522 89.9774 30.393 107.581 29.128C122.907 28.0267 138.217 26.0262 151.371 29.582C162.493 32.6011 171.188 38.7309 178.143 47.7519C188.463 61.1321 200.978 72.5539 213.32 84.16C222.683 92.9508 231.055 102.835 234.09 115.999C236.064 124.536 234.442 132.603 229.611 140.257C217.419 159.591 200.169 173.617 179.494 183.002C169.669 187.456 158.588 188.381 147.686 188.37C131.966 188.351 116.182 187.941 100.469 189.983C91.4906 191.162 82.4686 192.757 73.4683 194.144C55.953 196.826 47.0411 190.595 39.8686 175.767C36.6674 169.147 35.7387 161.8 34.1699 154.661" fill="#E0E7FE"/>
<path d="M48.0583 136.438C52.1946 122.284 60.181 109.521 65.5073 95.8413C68.5686 88.0041 71.3951 79.9911 75.6353 72.7753C81.9603 61.9923 92.2702 55.1513 104.456 53.2187C126.849 49.6269 148.753 48.4911 166.685 64.6258C180.256 76.8233 194.61 88.1827 205.875 102.597C210.712 108.792 214.693 115.503 215.837 123.627C217.562 135.996 212.307 146.404 203.437 154.883C189.237 168.461 171.799 175.521 152.705 176.145C137.963 176.618 123.529 173.702 109.242 171.063C96.2818 168.644 83.5386 165.357 70.672 162.58C65.0269 161.351 59.7661 159.219 55.0644 156.291C48.2065 152.025 48.0903 144.502 48.1155 137.165" fill="#6E90F5"/>
<path d="M52.5316 114.816C58.4068 101.904 67.8588 90.8669 74.8337 78.5764C78.8393 71.5364 82.6386 64.2952 87.714 58.0164C95.2873 48.6319 106.238 43.5766 118.38 43.4717C140.701 43.2404 162.224 45.2824 177.628 63.2337C189.289 76.8068 201.821 89.6919 210.942 105.051C214.858 111.651 217.871 118.621 217.932 126.535C218.009 138.582 211.529 147.761 201.77 154.584C186.149 165.512 168.214 169.759 149.499 167.629C135.051 165.977 121.344 161.135 107.744 156.579C95.4097 152.422 83.4004 147.468 71.2046 142.982C65.8551 141.005 60.998 138.22 56.79 134.756C50.6514 129.707 51.5153 122.513 52.493 115.518" stroke="black" stroke-width="3" stroke-miterlimit="10" stroke-linecap="round" stroke-linejoin="round" stroke-dasharray="8 20"/>
<path d="M38.887 149.119C39.362 141.716 38.5475 134.372 39.8728 126.911C41.9271 115.376 45.3759 104.053 45.003 92.1895C44.7264 83.5219 46.8961 74.5195 46.8051 65.8053C46.686 55.8633 54.914 48.0917 65.2496 39.9586C80.5678 27.9046 94.8182 25.4453 112.422 24.1804C127.747 23.0791 143.058 21.0785 156.211 24.6343C167.334 27.6534 176.029 33.7832 182.984 42.8043C193.304 56.1845 205.819 67.6063 218.16 79.2123C227.524 88.0032 235.896 97.8874 238.931 111.051C240.905 119.589 239.283 127.655 234.451 135.309C222.26 154.644 205.009 168.67 184.335 178.054C174.51 182.509 163.429 183.434 152.526 183.423C136.807 183.403 121.023 182.994 105.31 185.036C96.3314 186.214 87.3094 187.809 78.3091 189.196C60.7938 191.879 51.882 185.647 44.7094 170.819C41.5082 164.2 40.5795 156.852 39.0108 149.713" stroke="black" stroke-width="3" stroke-miterlimit="10" stroke-linecap="round" stroke-linejoin="round" stroke-dasharray="8 20"/>
<path d="M150.348 105.422C151.528 113.175 147.625 119.183 143.042 126.098C141.851 127.932 140.622 130.101 141.281 132.139C142.003 134.217 144.306 135.25 146.373 135.952C147.617 136.394 148.944 136.71 150.222 136.546C153.302 136.106 156.006 131.389 157.231 128.949C158.844 125.772 159.949 122.268 162.111 119.356C166.414 113.426 174.415 119.559 179.79 121.133C181.139 121.553 185.15 123.147 186.521 122.146C188.434 120.866 185.552 118.922 185.151 117.319C189.248 117.533 193.108 117.417 196.991 115.879C198.347 115.317 199.722 114.588 200.798 113.486C201.81 112.344 202.483 110.893 202.314 109.35C201.482 103.973 192.428 107.922 189.42 108.946C184.509 110.54 179.48 112.595 174.206 112.251C172.652 112.148 170.902 111.65 170.461 110.111C170.086 108.883 170.99 107.492 172.178 106.912C173.367 106.331 174.667 106.271 176.009 106.148C183.371 105.773 190.722 104.583 197.893 102.561C204.855 100.584 211.907 99.0225 217.762 94.4496C222.35 90.8552 225.887 85.6882 226.729 79.9532C227.229 76.6878 225.399 72.0138 221.753 75.407C217.09 79.6708 213.852 85.2096 209.68 89.9678C205.57 94.7669 200.09 99.0422 193.796 99.2976C192.013 99.4062 197.985 89.7977 198.086 89.5039C198.575 88.4736 198.848 86.945 197.894 86.3317C196.728 85.4917 195.256 86.7865 194.516 87.9248C192.69 90.8747 191.443 94.7354 188.23 96.0755C187.268 93.3946 191.169 90.165 189.228 88.0199C188.054 86.637 185.569 87.5491 184.774 89.1895C183.915 90.789 184.173 92.7487 184.178 94.545C184.182 96.3412 183.813 98.4352 182.315 99.3543C180.297 100.657 177.441 99.0885 176.633 96.8649C175.825 94.6413 176.441 92.168 177.333 89.9623C179.685 84.1226 184.31 78.6688 190.551 77.6621C195.618 76.7973 200.855 79.0005 205.99 78.448C207.436 78.3024 209.088 77.8406 209.932 76.6799C210.881 75.4969 210.727 73.5148 209.374 72.8236C208.824 72.5598 208.278 72.5674 207.669 72.5342C205.423 72.524 203.241 72.5546 200.994 72.5443C201.251 69.9298 204.45 69.0286 206.939 68.3879C212.544 66.9724 218.373 63.5486 219.679 57.9325C219.757 57.5345 219.877 57.0733 219.682 56.6792C219.289 55.6195 217.798 55.5569 216.711 55.8437C211.255 57.445 208.039 63.088 203.72 66.407C199.588 69.5772 194.424 72.5321 189.143 73.1702C185.728 73.5732 185.57 71.3196 187.168 68.5818C188.644 66.0338 191.412 64.4075 194.062 63.2424C197.357 61.7758 200.93 60.5768 203.455 58.0767C206.063 55.45 207.287 51.4852 210.257 49.2712C212.48 47.6525 215.392 47.1939 217.573 45.6385C219.86 44.0608 221.088 40.3674 218.882 38.7691C216.718 37.1076 213.703 39.1134 211.842 41.1446C206.261 47.2385 201.555 54.3436 194.564 58.7236C193.814 51.6951 202.987 47.2845 203.937 40.2739C204.146 38.7044 203.465 36.5626 201.787 36.6488C201.137 36.6788 200.617 37.0621 200.098 37.4453C196.963 39.9123 195.612 43.7954 194.448 47.5297C193.302 51.0966 190.821 53.805 188.808 56.9037C184.33 63.7967 180.55 71.1394 177.384 78.7869C175.032 84.6265 172.957 90.7339 168.612 95.2021C167.805 96.028 166.557 96.8393 165.604 96.226C165.032 95.8581 164.875 95.1292 164.844 94.4821C164.585 90.9976 166.849 87.791 168.843 84.8596C170.797 81.9915 172.425 78.3761 173.47 75.103C174.534 71.6625 171.27 69.4734 173.089 65.9806C174.601 63.0978 176.899 60.8097 179.174 58.4175C182.977 54.2284 186.48 49.6676 189.498 44.8838C191.242 42.0604 196.59 31.3328 190.4 30.0411C188.337 29.6106 186.256 30.8721 185.02 32.4978C183.742 34.1867 183.205 36.2621 182.645 38.2334C181.503 42.0718 180.234 45.8284 178.796 49.5665C177.785 52.2334 175.261 59.3079 171.123 57.6323C167.639 56.1982 168.444 49.2732 168.256 46.3725C167.982 43.3268 167.109 39.5376 164.101 39.0367C161.324 38.5953 159.202 41.4449 158.336 44.0262C156.425 49.8806 157.294 56.4479 160.705 61.6009C161.67 63.0286 162.844 64.4116 163.308 66.0552C163.836 67.7396 163.571 69.8112 162.073 70.7304C161.254 69.2171 159.164 68.4109 157.535 68.9769C155.865 69.6061 154.8 71.5218 155.16 73.1877C155.654 75.4784 158.065 76.7604 159.643 78.4928C162.073 81.1323 162.509 85.1783 161.845 88.6967C161.416 91.0212 160.214 93.5654 157.893 94.2246C156.346 94.6641 154.66 94.2073 153.367 93.2856C149.595 90.7694 148.326 85.6489 148.933 81.1078C149.499 76.63 151.56 72.4863 152.968 68.1011C154.397 63.82 155.21 58.9627 153.388 54.8317C153.171 54.3334 152.891 53.7943 152.423 53.404C151.021 52.2331 148.809 53.1414 147.887 54.7C146.964 56.2587 147.096 58.1367 147.1 59.9329C147.174 65.0911 146.574 70.1751 145.406 75.1627C145.07 76.6504 144.006 78.5661 142.488 78.1279C141.793 77.9496 141.363 77.2246 141.101 76.5181C139.059 71.6174 141.269 66.1348 141.719 60.8648C141.79 59.9239 141.774 58.838 141.176 58.0944C139.852 56.5256 137.244 57.6274 136.008 59.2531C134.278 61.6377 133.988 64.8584 134.385 67.7144C134.715 70.258 135.819 72.5819 136.294 75.0399C137.13 79.1639 135.738 77.2826 132.884 78.7639C129.883 80.3308 132.556 82.3194 134.575 84.0665C141.739 90.3783 148.883 95.3328 150.348 105.422Z" fill="#5780FA"/>
<path d="M111.94 170.267C107.534 172.779 101.888 174.651 96.712 174.311C96.5409 171.544 96.6692 168.735 97.1398 165.968C95.7709 168.607 94.7443 171.416 94.0599 174.311C93.9744 174.694 87.6436 173.587 87.0447 173.46C85.5476 173.162 84.1787 172.523 82.6816 172.31C82.8527 170.821 83.8365 169.544 84.0076 168.096C83.0666 169.161 82.2111 170.352 81.5266 171.629C81.3555 171.927 77.8907 170.395 77.5913 170.267C76.1369 169.544 74.7253 168.692 73.3565 167.756C71.3888 166.394 69.9344 164.564 68.0095 163.244C69.3784 160.818 70.7472 158.392 72.1588 155.965C70.0628 156.944 68.0095 158.051 66.0846 159.328C65.828 159.498 65.5713 159.669 65.2719 159.583C65.1436 159.541 65.0153 159.413 64.9297 159.328C63.5181 157.796 62.406 156.051 61.4649 154.22C60.3955 152.135 59.8822 150.262 59.4544 148.006C60.8232 147.112 62.1921 146.261 63.5609 145.367C61.8071 145.58 60.0533 145.792 58.3423 146.005C56.2463 138.301 56.4174 129.66 58.77 121.999C59.1122 120.934 59.4972 119.828 60.2672 119.062C61.2938 118.083 62.8337 117.827 64.2453 117.614C76.693 115.827 90.2101 114.379 101.118 120.637C107.876 124.51 112.881 131.15 115.405 138.514C117.886 145.878 121.509 162.027 111.94 170.267Z" fill="#5780FA"/>
</g>
<path d="M52.1087 84.0213C49.7735 69.4383 61.0381 56.2264 75.8068 56.2264H91.9725C103.762 56.2264 113.806 64.79 115.671 76.4316L126.335 143.031C128.671 157.614 117.406 170.826 102.637 170.826H86.4716C74.6817 170.826 64.6378 162.263 62.7736 150.621L52.1087 84.0213Z" fill="#5780FA"/>
<path d="M115.671 76.4316L114.189 76.6688L115.671 76.4316ZM75.8068 56.2264V57.7264H91.9725V56.2264V54.7264H75.8068V56.2264ZM115.671 76.4316L114.189 76.6688L124.854 143.268L126.335 143.031L127.817 142.794L117.152 76.1944L115.671 76.4316ZM102.637 170.826V169.326H86.4716V170.826V172.326H102.637V170.826ZM62.7736 150.621L64.2547 150.384L53.5899 83.7841L52.1087 84.0213L50.6276 84.2585L61.2925 150.858L62.7736 150.621ZM86.4716 170.826V169.326C75.4186 169.326 66.0024 161.298 64.2547 150.384L62.7736 150.621L61.2925 150.858C63.2732 163.227 73.9449 172.326 86.4716 172.326V170.826ZM126.335 143.031L124.854 143.268C127.044 156.94 116.483 169.326 102.637 169.326V170.826V172.326C118.329 172.326 130.298 158.288 127.817 142.794L126.335 143.031ZM91.9725 56.2264V57.7264C103.026 57.7264 112.442 65.7548 114.189 76.6688L115.671 76.4316L117.152 76.1944C115.171 63.8252 104.499 54.7264 91.9725 54.7264V56.2264ZM75.8068 56.2264V54.7264C60.115 54.7264 48.1464 68.7641 50.6276 84.2585L52.1087 84.0213L53.5899 83.7841C51.4006 70.1126 61.9611 57.7264 75.8068 57.7264V56.2264Z" fill="black"/>
<path d="M88.4973 65.2379L91.423 65.2379" stroke="black" stroke-width="3" stroke-linejoin="round"/>
<path d="M68.6702 65.2379H83.8382" stroke="black" stroke-width="3" stroke-linejoin="round"/>
<path d="M56.7527 73.8666H121.53L134.642 155.687H69.865L56.7527 73.8666Z" fill="white" stroke="black" stroke-width="3"/>
<path d="M101.382 85.6727L67.3112 85.6727L66.5827 81.4732L100.569 81.4733L101.382 85.6727Z" fill="#5780FA"/>
<path d="M116.22 95.0333L82.1489 95.0333L81.4204 90.8338L115.407 90.8338L116.22 95.0333Z" fill="#5780FA"/>
<path d="M101.382 85.6727L67.3112 85.6727L66.5827 81.4732L100.569 81.4733L101.382 85.6727Z" stroke="black" stroke-width="3"/>
<path d="M116.22 95.0333L82.1489 95.0333L81.4204 90.8338L115.407 90.8338L116.22 95.0333Z" stroke="black" stroke-width="3"/>
<path d="M124.258 147.663L90.1869 147.663L89.4585 143.463L123.445 143.463L124.258 147.663Z" fill="#5780FA" stroke="black" stroke-width="3"/>
<path fill-rule="evenodd" clip-rule="evenodd" d="M184.394 83.7439C184.395 83.744 184.395 83.7437 184.395 83.7432C185.284 80.4386 185.172 76.9449 184.075 73.7036C183.709 72.6222 183.239 71.5851 182.674 70.6057C182.672 70.6024 182.673 70.5981 182.676 70.5962C182.68 70.5943 182.681 70.59 182.679 70.5867C180.965 67.6273 178.413 65.2419 175.344 63.732C174.484 63.3088 173.594 62.9597 172.685 62.6862C171.437 62.3098 170.145 62.0736 168.832 61.9864C165.42 61.7598 162.017 62.5493 159.053 64.2553C159.05 64.2574 159.049 64.2619 159.051 64.2654C159.053 64.269 159.051 64.2735 159.048 64.2755C158.069 64.8413 157.143 65.5044 156.285 66.258C153.714 68.5164 151.871 71.4863 150.988 74.7923C150.988 74.7928 150.988 74.7934 150.989 74.7936C150.989 74.7937 150.99 74.7943 150.989 74.7949L145.912 93.7453C145.416 95.5952 146.514 97.4967 148.364 97.9923C150.214 98.488 152.115 97.3902 152.611 95.5403L157.688 76.5905C157.689 76.5864 157.694 76.584 157.698 76.5851C157.702 76.5862 157.706 76.5837 157.707 76.5796C158.236 74.6048 159.338 72.8308 160.874 71.4815C162.412 70.1304 164.316 69.2658 166.345 68.9968C167.805 68.8033 169.283 68.9244 170.681 69.3442C171.873 69.7045 172.996 70.2788 173.993 71.0455C175.616 72.2931 176.833 73.9939 177.489 75.9329C178.145 77.8694 178.212 79.9566 177.683 81.9312C177.681 81.9354 177.684 81.9397 177.688 81.9408C177.692 81.9419 177.695 81.9462 177.694 81.9504L172.616 100.9C172.12 102.75 173.218 104.651 175.068 105.147C176.918 105.642 178.819 104.545 179.315 102.695L184.393 83.7446C184.393 83.744 184.393 83.7437 184.394 83.7439Z" fill="#5780FA"/>
<path d="M184.075 73.7036L185.496 73.2227V73.2227L184.075 73.7036ZM175.344 63.732L176.007 62.3861V62.3861L175.344 63.732ZM172.685 62.6862L172.251 64.1222L172.253 64.1228L172.685 62.6862ZM168.832 61.9864L168.931 60.4897L168.931 60.4897L168.832 61.9864ZM156.285 66.258L157.275 67.3849L157.275 67.3849L156.285 66.258ZM160.874 71.4815L161.864 72.6084L161.864 72.6084L160.874 71.4815ZM166.345 68.9968L166.542 70.4838L166.542 70.4838L166.345 68.9968ZM170.681 69.3442L171.115 67.9083L171.112 67.9075L170.681 69.3442ZM173.993 71.0455L174.907 69.8563L174.907 69.8563L173.993 71.0455ZM177.489 75.9329L176.068 76.4138L176.068 76.4138L177.489 75.9329ZM172.616 100.9L171.167 100.512L172.616 100.9ZM177.688 81.9408L178.078 80.4923L177.688 81.9408ZM177.694 81.9504L176.245 81.5621L177.694 81.9504ZM177.683 81.9312L179.131 82.3196L177.683 81.9312ZM157.698 76.5851L158.085 75.1358L157.698 76.5851ZM157.707 76.5796L159.156 76.9676L157.707 76.5796ZM150.989 74.7936L151.376 73.3444L151.376 73.3444L150.989 74.7936ZM150.989 74.7949L149.541 74.4067L150.989 74.7949ZM150.988 74.7923L152.437 75.1793L150.988 74.7923ZM159.051 64.2654L157.751 65.0143L159.051 64.2654ZM159.048 64.2755L158.297 62.9768L159.048 64.2755ZM157.688 76.5905L159.137 76.9787L157.688 76.5905ZM182.676 70.5962L181.925 69.2978L182.676 70.5962ZM182.679 70.5867L181.381 71.3384L182.679 70.5867ZM159.053 64.2553L159.802 65.5553L159.053 64.2553ZM184.394 83.7439L184.784 82.2954L184.394 83.7439ZM182.674 70.6057L183.973 69.8562L182.674 70.6057ZM184.395 83.7432L182.947 83.3538L184.395 83.7432ZM184.075 73.7036L182.654 74.1846C183.656 77.1448 183.758 80.3357 182.947 83.3538L184.395 83.7432L185.844 84.1326C186.809 80.5416 186.688 76.7449 185.496 73.2227L184.075 73.7036ZM182.674 70.6057L181.374 71.3552C181.89 72.2497 182.32 73.1969 182.654 74.1846L184.075 73.7036L185.496 73.2227C185.098 72.0476 184.587 70.9206 183.973 69.8562L182.674 70.6057ZM182.679 70.5867L183.977 69.8351C182.115 66.6191 179.341 64.0269 176.007 62.3861L175.344 63.732L174.682 65.0779C177.485 66.4569 179.816 68.6355 181.381 71.3384L182.679 70.5867ZM175.344 63.732L176.007 62.3861C175.072 61.9262 174.105 61.5468 173.116 61.2497L172.685 62.6862L172.253 64.1228C173.084 64.3725 173.897 64.6913 174.682 65.0779L175.344 63.732ZM168.832 61.9864L168.733 63.4831C169.932 63.5627 171.112 63.7785 172.251 64.1222L172.685 62.6862L173.118 61.2502C171.763 60.8412 170.359 60.5844 168.931 60.4897L168.832 61.9864ZM159.053 64.2553L159.802 65.5553C162.508 63.9972 165.616 63.2761 168.733 63.4831L168.832 61.9864L168.931 60.4897C165.223 60.2434 161.526 61.1014 158.305 62.9553L159.053 64.2553ZM159.048 64.2755L158.297 62.9768C157.233 63.5916 156.227 64.3122 155.295 65.1311L156.285 66.258L157.275 67.3849C158.058 66.6966 158.904 66.091 159.798 65.5743L159.048 64.2755ZM156.285 66.258L155.295 65.1311C152.501 67.5853 150.498 70.8127 149.539 74.4052L150.988 74.7923L152.437 75.1793C153.244 72.16 154.927 69.4475 157.275 67.3849L156.285 66.258ZM150.989 74.7949L149.541 74.4067L144.463 93.3571L145.912 93.7453L147.361 94.1336L152.438 75.1832L150.989 74.7949ZM152.611 95.5403L154.06 95.9285L159.137 76.9787L157.688 76.5905L156.239 76.2023L151.162 95.1521L152.611 95.5403ZM157.707 76.5796L159.156 76.9676C159.608 75.2791 160.55 73.7622 161.864 72.6084L160.874 71.4815L159.884 70.3546C158.125 71.8995 156.864 73.9306 156.258 76.1915L157.707 76.5796ZM160.874 71.4815L161.864 72.6084C163.179 71.4531 164.807 70.7138 166.542 70.4838L166.345 68.9968L166.148 67.5098C163.825 67.8178 161.645 68.8077 159.884 70.3546L160.874 71.4815ZM166.345 68.9968L166.542 70.4838C167.79 70.3184 169.054 70.4219 170.25 70.7808L170.681 69.3442L171.112 67.9075C169.511 67.4269 167.82 67.2883 166.148 67.5098L166.345 68.9968ZM173.993 71.0455L174.907 69.8563C173.766 68.9785 172.479 68.3209 171.115 67.9083L170.681 69.3442L170.247 70.78C171.266 71.0881 172.226 71.5792 173.079 72.2347L173.993 71.0455ZM177.489 75.9329L178.91 75.452C178.158 73.232 176.766 71.2846 174.907 69.8563L173.993 71.0455L173.079 72.2347C174.467 73.3015 175.507 74.7558 176.068 76.4138L177.489 75.9329ZM177.683 81.9312L179.131 82.3196C179.737 80.0588 179.66 77.6691 178.91 75.452L177.489 75.9329L176.068 76.4138C176.629 78.0697 176.686 79.8544 176.234 81.5428L177.683 81.9312ZM172.616 100.9L174.065 101.288L179.142 82.3386L177.694 81.9504L176.245 81.5621L171.167 100.512L172.616 100.9ZM184.393 83.7446L182.944 83.3563L177.866 102.307L179.315 102.695L180.764 103.083L185.842 84.1328L184.393 83.7446ZM172.616 100.9L171.167 100.512C170.457 103.162 172.03 105.886 174.68 106.596L175.068 105.147L175.456 103.698C174.407 103.417 173.784 102.338 174.065 101.288L172.616 100.9ZM177.688 81.9408L177.299 83.3894C176.503 83.1755 176.032 82.3576 176.245 81.5621L177.694 81.9504L179.142 82.3386C179.358 81.5348 178.881 80.7084 178.078 80.4923L177.688 81.9408ZM177.683 81.9312L176.234 81.5428C176.019 82.3448 176.493 83.1727 177.299 83.3894L177.688 81.9408L178.078 80.4923C178.875 80.7066 179.344 81.526 179.131 82.3196L177.683 81.9312ZM157.698 76.5851L157.311 78.0343C158.117 78.2495 158.941 77.7696 159.156 76.9676L157.707 76.5796L156.258 76.1915C156.471 75.3978 157.287 74.9228 158.085 75.1358L157.698 76.5851ZM150.989 74.7936L150.602 76.2428C149.801 76.0291 149.326 75.2068 149.541 74.4067L150.989 74.7949L152.438 75.1832C152.653 74.3819 152.177 73.5584 151.376 73.3444L150.989 74.7936ZM150.988 74.7923L149.539 74.4052C149.325 75.2042 149.799 76.0284 150.602 76.2428L150.989 74.7936L151.376 73.3444C152.177 73.5585 152.65 74.3814 152.437 75.1793L150.988 74.7923ZM159.051 64.2654L157.751 65.0143C157.34 64.3004 157.585 63.3887 158.297 62.9768L159.048 64.2755L159.798 65.5743C160.518 65.1583 160.766 64.2375 160.35 63.5165L159.051 64.2654ZM157.688 76.5905L159.137 76.9787C158.924 77.7743 158.107 78.2468 157.311 78.0343L157.698 76.5851L158.085 75.1358C157.281 74.9211 156.455 75.3985 156.239 76.2023L157.688 76.5905ZM182.676 70.5962L183.427 71.8946C184.149 71.4772 184.393 70.5547 183.977 69.8351L182.679 70.5867L181.381 71.3384C180.968 70.6254 181.21 69.7114 181.925 69.2978L182.676 70.5962ZM159.053 64.2553L158.305 62.9553C157.584 63.3703 157.335 64.292 157.751 65.0143L159.051 64.2654L160.35 63.5165C160.762 64.2318 160.515 65.1444 159.802 65.5553L159.053 64.2553ZM148.364 97.9923L147.975 99.4412C150.626 100.151 153.349 98.5786 154.06 95.9285L152.611 95.5403L151.162 95.1521C150.881 96.2018 149.802 96.8247 148.752 96.5434L148.364 97.9923ZM184.393 83.7446L185.842 84.1328C185.627 84.933 184.804 85.4076 184.004 85.1924L184.394 83.7439L184.784 82.2954C183.983 82.0799 183.159 82.5551 182.944 83.3563L184.393 83.7446ZM182.674 70.6057L183.973 69.8562C184.385 70.5696 184.141 71.4819 183.427 71.8946L182.676 70.5962L181.925 69.2978C181.205 69.7144 180.959 70.6352 181.374 71.3552L182.674 70.6057ZM145.912 93.7453L144.463 93.3571C143.753 96.0072 145.325 98.7311 147.975 99.4412L148.364 97.9923L148.752 96.5434C147.702 96.2622 147.079 95.1832 147.361 94.1336L145.912 93.7453ZM175.068 105.147L174.68 106.596C177.33 107.306 180.054 105.733 180.764 103.083L179.315 102.695L177.866 102.307C177.585 103.356 176.506 103.979 175.456 103.698L175.068 105.147ZM184.395 83.7432L182.947 83.3538C183.161 82.5568 183.981 82.0796 184.784 82.2954L184.394 83.7439L184.004 85.1924C184.808 85.4084 185.629 84.9306 185.844 84.1326L184.395 83.7432Z" fill="black"/>
<path d="M135.179 104.283C132.272 115.013 138.614 126.068 149.343 128.975L158.612 131.486C169.342 134.393 180.397 128.051 183.304 117.322C186.211 106.592 179.869 95.5369 169.14 92.6299L159.871 90.1186C149.141 87.2116 138.086 93.5532 135.179 104.283Z" fill="white" stroke="black" stroke-width="3"/>
<mask id="path-18-inside-1_7_1574" fill="white">
<path fill-rule="evenodd" clip-rule="evenodd" d="M154.203 114.99C154.832 113.634 154.459 112.058 153.864 110.687C153.284 109.353 153.135 107.821 153.541 106.307C154.495 102.747 158.154 100.634 161.714 101.588C165.274 102.542 167.387 106.201 166.433 109.761C166.028 111.275 165.133 112.528 163.964 113.394C162.763 114.283 161.652 115.461 161.519 116.95C161.321 119.162 159.176 120.661 157.03 120.086L156.522 119.95C154.377 119.375 153.269 117.005 154.203 114.99Z"/>
</mask>
<path fill-rule="evenodd" clip-rule="evenodd" d="M154.203 114.99C154.832 113.634 154.459 112.058 153.864 110.687C153.284 109.353 153.135 107.821 153.541 106.307C154.495 102.747 158.154 100.634 161.714 101.588C165.274 102.542 167.387 106.201 166.433 109.761C166.028 111.275 165.133 112.528 163.964 113.394C162.763 114.283 161.652 115.461 161.519 116.95C161.321 119.162 159.176 120.661 157.03 120.086L156.522 119.95C154.377 119.375 153.269 117.005 154.203 114.99Z" fill="black"/>
<path d="M161.519 116.95L164.507 117.218L161.519 116.95ZM153.541 106.307L156.439 107.083C156.215 107.92 156.297 108.758 156.616 109.493L153.864 110.687L151.112 111.882C150.272 109.948 150.056 107.722 150.643 105.53L153.541 106.307ZM161.714 101.588L160.938 104.486C158.978 103.961 156.964 105.124 156.439 107.083L153.541 106.307L150.643 105.53C152.026 100.37 157.33 97.3076 162.491 98.6903L161.714 101.588ZM166.433 109.761L163.535 108.985C164.061 107.025 162.898 105.011 160.938 104.486L161.714 101.588L162.491 98.6903C167.651 100.073 170.714 105.377 169.331 110.538L166.433 109.761ZM163.964 113.394L162.178 110.983C162.822 110.506 163.311 109.821 163.535 108.985L166.433 109.761L169.331 110.538C168.744 112.73 167.443 114.549 165.75 115.804L163.964 113.394ZM156.522 119.95L157.299 117.052L157.807 117.188L157.03 120.086L156.254 122.984L155.746 122.848L156.522 119.95ZM161.519 116.95L164.507 117.218C164.143 121.285 160.198 124.041 156.254 122.984L157.03 120.086L157.807 117.188C158.153 117.281 158.499 117.039 158.531 116.682L161.519 116.95ZM163.964 113.394L165.75 115.804C165.286 116.148 164.951 116.468 164.74 116.749C164.539 117.017 164.512 117.165 164.507 117.218L161.519 116.95L158.531 116.682C158.785 113.848 160.825 111.986 162.178 110.983L163.964 113.394ZM156.522 119.95L155.746 122.848C151.801 121.791 149.763 117.432 151.481 113.728L154.203 114.99L156.925 116.252C156.774 116.577 156.953 116.959 157.299 117.052L156.522 119.95ZM153.864 110.687L156.616 109.493C157.286 111.038 158.122 113.67 156.925 116.252L154.203 114.99L151.481 113.728C151.504 113.679 151.554 113.538 151.514 113.205C151.472 112.857 151.342 112.412 151.112 111.882L153.864 110.687Z" fill="black" mask="url(#path-18-inside-1_7_1574)"/>
<defs>
<clipPath id="clip0_7_1574">
<rect width="264" height="218.855" rx="16" fill="white"/>
</clipPath>
</defs>
</svg>
