<svg width="227" height="155" viewBox="0 0 227 155" fill="none" xmlns="http://www.w3.org/2000/svg">
<path d="M35.3276 22.2836C34.1606 14.4041 40.2663 7.32764 48.2317 7.32764L140.577 7.32764C147.043 7.32764 152.534 12.0647 153.481 18.4613L164.821 95.0267C165.988 102.906 159.882 109.983 151.917 109.983H59.5716C53.1053 109.983 47.6149 105.246 46.6675 98.849L35.3276 22.2836Z" fill="#0C3F5E" stroke="black" stroke-width="3"/>
<path d="M54.5059 8.82764H194.126C198.847 8.82783 202.851 12.2944 203.527 16.9663L213.666 87.0024C214.495 92.7309 210.052 97.8628 204.264 97.8628H64.9219C60.2149 97.8628 56.2168 94.416 55.5244 89.7603L45.1094 19.7251C44.2557 13.9851 48.7027 8.82765 54.5059 8.82764Z" fill="white" stroke="black" stroke-width="3"/>
<circle cx="99.3814" cy="55.8897" r="21.2182" transform="rotate(-30 99.3814 55.8897)" fill="black"/>
<circle cx="90.9644" cy="55.601" r="3.32717" transform="rotate(-30 90.9644 55.601)" fill="white"/>
<circle cx="103.342" cy="48.4555" r="3.32717" transform="rotate(-30 103.342 48.4555)" fill="white"/>
<path d="M105.934 57.0365L110.354 59.5883L105.934 62.1401L105.934 57.0365Z" fill="white"/>
<path d="M97.0413 62.1706L101.461 64.7224L97.0413 67.2743L97.0413 62.1706Z" fill="white"/>
<rect x="95.6201" y="67.95" width="18.5764" height="2.30127" rx="1.15063" transform="rotate(-30 95.6201 67.95)" fill="white"/>
<path d="M120.003 22.9869H208.379C213.097 22.9869 217.101 26.4492 217.781 31.1178L223.683 71.6549C224.518 77.3859 220.074 82.5238 214.283 82.524H126.068C121.364 82.524 117.368 79.0814 116.672 74.4293L110.608 33.8922C109.749 28.1499 114.197 22.9872 120.003 22.9869Z" fill="white" stroke="black" stroke-width="3"/>
<mask id="path-10-inside-1_7_1872" fill="white">
<path d="M207.049 53.7312C208.12 53.7312 209.053 54.463 209.308 55.5037C209.668 56.9695 208.558 58.3845 207.049 58.3845H141.185C140.093 58.3844 139.147 57.6244 138.913 56.5574C138.594 55.1059 139.699 53.7314 141.185 53.7312H207.049ZM177.295 46.489C178.366 46.489 179.299 47.2209 179.554 48.2615C179.914 49.7273 178.804 51.1423 177.295 51.1423H124.185C123.093 51.1423 122.147 50.3822 121.913 49.3152C121.594 47.8636 122.699 46.489 124.185 46.489H177.295Z"/>
</mask>
<path d="M207.049 53.7312C208.12 53.7312 209.053 54.463 209.308 55.5037C209.668 56.9695 208.558 58.3845 207.049 58.3845H141.185C140.093 58.3844 139.147 57.6244 138.913 56.5574C138.594 55.1059 139.699 53.7314 141.185 53.7312H207.049ZM177.295 46.489C178.366 46.489 179.299 47.2209 179.554 48.2615C179.914 49.7273 178.804 51.1423 177.295 51.1423H124.185C123.093 51.1423 122.147 50.3822 121.913 49.3152C121.594 47.8636 122.699 46.489 124.185 46.489H177.295Z" fill="black"/>
<path d="M207.049 53.7312V50.7312V50.7312V53.7312ZM209.308 55.5037L212.222 54.7894L212.222 54.7891L209.308 55.5037ZM207.049 58.3845V55.3845V55.3845V58.3845ZM141.185 58.3845L141.185 61.3845H141.185V58.3845ZM138.913 56.5574L135.983 57.2013L135.983 57.2013L138.913 56.5574ZM141.185 53.7312V50.7312H141.185L141.185 53.7312ZM177.295 46.489V43.489V43.489V46.489ZM179.554 48.2615L182.468 47.5472L182.468 47.5468L179.554 48.2615ZM177.295 51.1423V48.1423V48.1423V51.1423ZM124.185 51.1423L124.185 54.1423H124.185V51.1423ZM121.913 49.3152L118.983 49.9592L118.983 49.9593L121.913 49.3152ZM124.185 46.489L124.185 49.489H124.185V46.489ZM207.049 53.7312V56.7312C206.739 56.7312 206.469 56.5195 206.395 56.2183L209.308 55.5037L212.222 54.7891C211.638 52.4065 209.502 50.7312 207.049 50.7312V53.7312ZM209.308 55.5037L206.395 56.218C206.291 55.794 206.612 55.3845 207.049 55.3845V58.3845V61.3845C210.504 61.3845 213.045 58.145 212.222 54.7894L209.308 55.5037ZM207.049 58.3845V55.3845H141.185V58.3845V61.3845H207.049V58.3845ZM141.185 58.3845L141.186 55.3845C141.501 55.3846 141.775 55.604 141.843 55.9134L138.913 56.5574L135.983 57.2013C136.52 59.6447 138.685 61.3842 141.185 61.3845L141.185 58.3845ZM138.913 56.5574L141.843 55.9134C141.935 56.3339 141.615 56.7312 141.186 56.7312L141.185 53.7312L141.185 50.7312C137.783 50.7316 135.252 53.8778 135.983 57.2013L138.913 56.5574ZM141.185 53.7312V56.7312H207.049V53.7312V50.7312H141.185V53.7312ZM177.295 46.489V49.489C176.985 49.489 176.715 49.2773 176.641 48.9762L179.554 48.2615L182.468 47.5468C181.884 45.1644 179.748 43.489 177.295 43.489V46.489ZM179.554 48.2615L176.641 48.9758C176.537 48.5518 176.858 48.1423 177.295 48.1423V51.1423V54.1423C180.75 54.1423 183.291 50.9029 182.468 47.5472L179.554 48.2615ZM177.295 51.1423V48.1423H124.185V51.1423V54.1423H177.295V51.1423ZM124.185 51.1423L124.185 48.1423C124.501 48.1423 124.775 48.3623 124.843 48.671L121.913 49.3152L118.983 49.9593C119.52 52.4021 121.684 54.1423 124.185 54.1423L124.185 51.1423ZM121.913 49.3152L124.843 48.6712C124.935 49.0913 124.615 49.489 124.185 49.489L124.185 46.489L124.185 43.489C120.783 43.489 118.252 46.6359 118.983 49.9592L121.913 49.3152ZM124.185 46.489V49.489H177.295V46.489V43.489H124.185V46.489Z" fill="black" mask="url(#path-10-inside-1_7_1872)"/>
<path d="M40.385 108.321L68.4629 80.0873C63.0241 73.3319 59.7495 64.7478 59.7495 55.3985C59.7495 33.7296 77.2833 16.0982 98.8323 16.0982C120.381 16.0982 137.915 33.7294 137.915 55.3983C137.915 77.0673 120.381 94.6987 98.8321 94.6987C89.5346 94.6987 80.998 91.4058 74.2799 85.9368L46.2021 114.171C45.3999 114.978 44.3468 115.383 43.2935 115.383C42.2402 115.383 41.187 114.978 40.3848 114.171C38.7763 112.554 38.7763 109.939 40.385 108.321ZM98.8321 86.4249C115.848 86.4249 129.687 72.5085 129.687 55.3983C129.687 38.2882 115.848 24.3718 98.8321 24.3718C81.8166 24.3718 67.9773 38.2882 67.9773 55.3983C67.9773 72.5085 81.8168 86.4249 98.8321 86.4249Z" fill="white"/>
<path d="M40.385 108.321L68.4629 80.0873C63.0241 73.3319 59.7495 64.7478 59.7495 55.3985C59.7495 33.7296 77.2833 16.0982 98.8323 16.0982C120.381 16.0982 137.915 33.7294 137.915 55.3983C137.915 77.0673 120.381 94.6987 98.8321 94.6987C89.5346 94.6987 80.998 91.4058 74.2799 85.9368L46.2021 114.171C45.3999 114.978 44.3468 115.383 43.2935 115.383C42.2402 115.383 41.187 114.978 40.3848 114.171C38.7763 112.554 38.7763 109.939 40.385 108.321ZM98.8321 86.4249C115.848 86.4249 129.687 72.5085 129.687 55.3983C129.687 38.2882 115.848 24.3718 98.8321 24.3718C81.8166 24.3718 67.9773 38.2882 67.9773 55.3983C67.9773 72.5085 81.8168 86.4249 98.8321 86.4249Z" stroke="black" stroke-width="3"/>
<rect x="47.6399" y="97.5249" width="12.9003" height="33.111" rx="6.45015" transform="rotate(45 47.6399 97.5249)" fill="black" stroke="black" stroke-width="3"/>
</svg>
