<svg width="264" height="219" viewBox="0 0 264 219" fill="none" xmlns="http://www.w3.org/2000/svg">
<g clip-path="url(#clip0_7_1574)">
<path d="M34.0463 154.067C34.5213 146.664 33.7068 139.319 35.0321 131.859C37.0864 120.323 40.5352 109 40.1623 97.1371C39.8857 88.4695 42.0554 79.4671 41.9644 70.7529C41.8453 60.8109 50.0733 53.0394 60.4089 44.9062C75.7271 32.8522 89.9775 30.393 107.581 29.128C122.907 28.0267 138.217 26.0262 151.371 29.582C162.493 32.6011 171.188 38.7309 178.143 47.7519C188.463 61.1321 200.978 72.5539 213.32 84.16C222.683 92.9508 231.055 102.835 234.09 115.999C236.064 124.536 234.442 132.603 229.611 140.257C217.419 159.591 200.169 173.617 179.495 183.002C169.669 187.456 158.588 188.381 147.686 188.37C131.966 188.351 116.182 187.941 100.469 189.983C91.4907 191.162 82.4687 192.757 73.4684 194.144C55.9531 196.826 47.0413 190.595 39.8687 175.767C36.6675 169.147 35.7388 161.8 34.1701 154.661" fill="#0C3F5E" fill-opacity="0.16"/>
<path d="M48.0584 136.438C52.1947 122.284 60.1811 109.521 65.5074 95.8413C68.5687 88.0041 71.3952 79.9911 75.6354 72.7753C81.9604 61.9923 92.2703 55.1513 104.456 53.2187C126.849 49.6269 148.753 48.4911 166.685 64.6258C180.256 76.8233 194.61 88.1827 205.875 102.597C210.712 108.792 214.693 115.503 215.837 123.627C217.562 135.996 212.307 146.404 203.437 154.883C189.237 168.461 171.799 175.521 152.706 176.145C137.963 176.618 123.53 173.702 109.242 171.063C96.282 168.644 83.5388 165.357 70.6721 162.58C65.027 161.351 59.7662 159.219 55.0645 156.291C48.2066 152.025 48.0904 144.502 48.1157 137.165" fill="#0C3F5E" fill-opacity="0.56"/>
<path d="M53.871 115.403C53.5194 116.175 52.6346 116.539 51.8948 116.215C51.155 115.891 50.8403 115.002 51.192 114.229L52.5315 114.816L53.871 115.403ZM74.8336 78.5764L73.5596 77.8611L73.5605 77.8595L74.8336 78.5764ZM87.7139 58.0164L88.8397 58.9494L88.8389 58.9504L87.7139 58.0164ZM118.38 43.4717L118.326 44.9888L118.324 44.9888L118.38 43.4717ZM177.628 63.2337L176.495 64.2648L176.494 64.2642L177.628 63.2337ZM210.942 105.051L212.219 104.219L212.22 104.22L210.942 105.051ZM217.932 126.535L219.415 126.453L219.415 126.455L217.932 126.535ZM201.77 154.584L200.973 153.345L200.973 153.344L201.77 154.584ZM149.499 167.629L149.268 169.137L149.267 169.137L149.499 167.629ZM107.743 156.579L107.223 158.023L107.221 158.022L107.743 156.579ZM71.2045 142.982L70.6459 144.413L70.6438 144.412L71.2045 142.982ZM56.7898 134.756L57.7514 133.556L57.7518 133.556L56.7898 134.756ZM51.0249 115.372C51.1415 114.538 51.8932 113.927 52.704 114.007C53.5148 114.088 54.0775 114.829 53.961 115.663L52.4929 115.518L51.0249 115.372ZM53.9678 108.688C54.3741 107.942 55.2801 107.647 55.9913 108.028C56.7025 108.409 56.9496 109.323 56.5433 110.069L55.2555 109.379L53.9678 108.688ZM72.9358 84.5716C72.4827 85.2905 71.5622 85.5243 70.8798 85.0938C70.1974 84.6633 70.0116 83.7315 70.4647 83.0126L71.7002 83.7921L72.9358 84.5716ZM75.2625 74.8448C75.6789 74.1042 76.5883 73.8214 77.2936 74.2133C77.999 74.6052 78.2333 75.5233 77.8169 76.264L76.5397 75.5544L75.2625 74.8448ZM86.7825 61.6386C86.2835 62.3261 85.3524 62.4952 84.7028 62.0162C84.0533 61.5372 83.9313 60.5915 84.4303 59.904L85.6064 60.7713L86.7825 61.6386ZM90.1671 53.1828C90.7787 52.5968 91.7162 52.6073 92.2611 53.2063C92.806 53.8052 92.752 54.7658 92.1405 55.3518L91.1538 54.2673L90.1671 53.1828ZM113.575 45.2977C112.758 45.3982 112.047 44.8053 111.987 43.9734C111.927 43.1415 112.54 42.3857 113.357 42.2852L113.466 43.7915L113.575 45.2977ZM123.123 41.9439C123.94 41.9496 124.568 42.6334 124.524 43.4713C124.481 44.3092 123.782 44.9839 122.964 44.9783L123.043 43.4611L123.123 41.9439ZM145.791 46.9737C144.996 46.812 144.509 46.0143 144.704 45.1922C144.9 44.37 145.703 43.8346 146.499 43.9963L146.145 45.485L145.791 46.9737ZM155.585 46.4699C156.348 46.7372 156.726 47.5976 156.429 48.3918C156.132 49.186 155.272 49.6131 154.509 49.3459L155.047 47.9079L155.585 46.4699ZM173.426 60.9806C172.849 60.414 172.853 59.4543 173.434 58.8369C174.015 58.2195 174.954 58.1782 175.531 58.7448L174.479 59.8627L173.426 60.9806ZM181.256 65.0824C181.788 65.693 181.715 66.6532 181.093 67.227C180.47 67.8007 179.534 67.7708 179.002 67.1601L180.129 66.1212L181.256 65.0824ZM191.572 81.5182C191.044 80.9028 191.125 79.9429 191.752 79.3741C192.378 78.8053 193.314 78.843 193.841 79.4583L192.707 80.4882L191.572 81.5182ZM198.771 85.3433C199.284 85.9719 199.181 86.9306 198.542 87.4848C197.903 88.0389 196.97 87.9786 196.457 87.35L197.614 86.3467L198.771 85.3433ZM207.674 102.651C207.236 101.965 207.442 101.019 208.134 100.538C208.826 100.057 209.742 100.224 210.18 100.91L208.927 101.781L207.674 102.651ZM213.845 107.086C214.233 107.805 213.962 108.736 213.24 109.167C212.519 109.597 211.619 109.363 211.232 108.644L212.538 107.865L213.845 107.086ZM216.261 123.474C216.169 122.647 216.754 121.868 217.568 121.735C218.382 121.602 219.116 122.164 219.209 122.992L217.735 123.233L216.261 123.474ZM219.072 131.465C218.95 132.298 218.194 132.904 217.384 132.818C216.574 132.732 216.017 131.986 216.139 131.153L217.605 131.309L219.072 131.465ZM204.669 150.501C205.313 149.953 206.245 150.023 206.751 150.658C207.257 151.292 207.144 152.25 206.5 152.798L205.584 151.649L204.669 150.501ZM199.165 158.079C198.453 158.525 197.548 158.312 197.144 157.603C196.74 156.894 196.991 155.957 197.703 155.511L198.434 156.795L199.165 158.079ZM180.057 163.558C180.852 163.318 181.657 163.775 181.854 164.578C182.052 165.381 181.568 166.226 180.773 166.466L180.415 165.012L180.057 163.558ZM172.973 168.367C172.162 168.519 171.414 167.974 171.303 167.15C171.192 166.326 171.76 165.535 172.571 165.383L172.772 166.875L172.973 168.367ZM153.523 166.464C154.337 166.519 154.923 167.241 154.832 168.077C154.74 168.914 154.006 169.547 153.192 169.492L153.358 167.978L153.523 166.464ZM146.146 168.731C145.341 168.614 144.812 167.846 144.964 167.016C145.116 166.187 145.892 165.609 146.697 165.726L146.421 167.229L146.146 168.731ZM131.727 162.554C132.509 162.765 132.947 163.593 132.704 164.404C132.462 165.215 131.631 165.702 130.849 165.491L131.288 164.023L131.727 162.554ZM124.868 163.781C124.093 163.547 123.679 162.705 123.944 161.9C124.209 161.096 125.052 160.633 125.827 160.866L125.348 162.324L124.868 163.781ZM111.19 156.118C111.957 156.375 112.345 157.231 112.057 158.028C111.769 158.825 110.914 159.263 110.147 159.005L110.669 157.561L111.19 156.118ZM101.934 156.189C101.172 155.918 100.798 155.055 101.099 154.262C101.4 153.469 102.261 153.046 103.023 153.317L102.479 154.753L101.934 156.189ZM76.9927 143.504C77.7489 143.79 78.1065 144.66 77.7916 145.448C77.4766 146.235 76.6083 146.642 75.8522 146.356L76.4225 144.93L76.9927 143.504ZM68.3673 143.511C67.6232 143.197 67.2975 142.312 67.6399 141.535C67.9823 140.759 68.8631 140.384 69.6072 140.698L68.9873 142.105L68.3673 143.511ZM59.5735 134.981C60.2213 135.463 60.3402 136.409 59.839 137.095C59.3378 137.781 58.4063 137.946 57.7584 137.465L58.666 136.223L59.5735 134.981ZM53.5855 133.695C53.0789 133.062 53.1899 132.103 53.8335 131.555C54.4772 131.007 55.4096 131.076 55.9163 131.709L54.7509 132.702L53.5855 133.695ZM53.5753 118.616C53.4792 119.451 52.7418 120.081 51.9283 120.021C51.1149 119.962 50.5334 119.236 50.6296 118.4L52.1025 118.508L53.5753 118.616ZM52.5315 114.816L51.192 114.229C52.0507 112.342 52.9824 110.498 53.9678 108.688L55.2555 109.379L56.5433 110.069C55.5898 111.82 54.6936 113.595 53.871 115.403L52.5315 114.816ZM71.7002 83.7921L70.4647 83.0126C71.5379 81.3099 72.5749 79.5962 73.5596 77.8611L74.8336 78.5764L76.1076 79.2916C75.0932 81.079 74.0295 82.8363 72.9358 84.5716L71.7002 83.7921ZM74.8336 78.5764L73.5605 77.8595C74.1296 76.8593 74.695 75.8543 75.2625 74.8448L76.5397 75.5544L77.8169 76.264C77.2497 77.2729 76.6805 78.2847 76.1067 79.2932L74.8336 78.5764ZM85.6064 60.7713L84.4303 59.904C85.1245 58.9477 85.8425 58.0058 86.589 57.0824L87.7139 58.0164L88.8389 58.9504C88.1308 59.8264 87.4468 60.7234 86.7825 61.6386L85.6064 60.7713ZM87.7139 58.0164L86.5881 57.0834C87.711 55.6919 88.9062 54.391 90.1671 53.1828L91.1538 54.2673L92.1405 55.3518C90.9792 56.4645 89.8769 57.6642 88.8397 58.9494L87.7139 58.0164ZM113.466 43.7915L113.357 42.2852C115.025 42.08 116.721 41.9693 118.437 41.9545L118.38 43.4717L118.324 44.9888C116.715 45.0027 115.131 45.1064 113.575 45.2977L113.466 43.7915ZM118.38 43.4717L118.434 41.9545C120 41.9383 121.563 41.9332 123.123 41.9439L123.043 43.4611L122.964 44.9783C121.425 44.9677 119.878 44.9727 118.326 44.9888L118.38 43.4717ZM146.145 45.485L146.499 43.9963C149.593 44.6255 152.628 45.4347 155.585 46.4699L155.047 47.9079L154.509 49.3459C151.686 48.3576 148.776 47.5805 145.791 46.9737L146.145 45.485ZM174.479 59.8627L175.531 58.7448C176.636 59.8291 177.713 60.9806 178.763 62.2032L177.628 63.2337L176.494 64.2642C175.496 63.1017 174.473 62.0085 173.426 60.9806L174.479 59.8627ZM177.628 63.2337L178.762 62.2026C179.589 63.1651 180.421 64.1246 181.256 65.0824L180.129 66.1212L179.002 67.1601C178.163 66.1983 177.327 65.2335 176.495 64.2648L177.628 63.2337ZM192.707 80.4882L193.841 79.4583C195.506 81.401 197.154 83.3599 198.771 85.3433L197.614 86.3467L196.457 87.35C194.858 85.3886 193.226 83.448 191.572 81.5182L192.707 80.4882ZM208.927 101.781L210.18 100.91C210.876 102.001 211.557 103.103 212.219 104.219L210.942 105.051L209.665 105.882C209.019 104.793 208.354 103.717 207.674 102.651L208.927 101.781ZM210.942 105.051L212.22 104.22C212.78 105.165 213.324 106.119 213.845 107.086L212.538 107.865L211.232 108.644C210.732 107.717 210.208 106.797 209.665 105.881L210.942 105.051ZM217.735 123.233L219.209 122.992C219.335 124.126 219.406 125.279 219.415 126.453L217.932 126.535L216.449 126.618C216.441 125.553 216.377 124.506 216.261 123.474L217.735 123.233ZM217.932 126.535L219.415 126.455C219.426 128.175 219.309 129.845 219.072 131.465L217.605 131.309L216.139 131.153C216.353 129.695 216.459 128.183 216.449 126.616L217.932 126.535ZM205.584 151.649L206.5 152.798C205.255 153.856 203.941 154.864 202.568 155.824L201.77 154.584L200.973 153.344C202.271 152.437 203.505 151.489 204.669 150.501L205.584 151.649ZM201.77 154.584L202.568 155.824C201.446 156.609 200.311 157.361 199.165 158.079L198.434 156.795L197.703 155.511C198.804 154.821 199.894 154.099 200.973 153.345L201.77 154.584ZM180.415 165.012L180.773 166.466C178.206 167.24 175.605 167.873 172.973 168.367L172.772 166.875L172.571 165.383C175.098 164.909 177.595 164.301 180.057 163.558L180.415 165.012ZM153.358 167.978L153.192 169.492C151.888 169.405 150.58 169.286 149.268 169.137L149.499 167.629L149.731 166.121C150.999 166.265 152.264 166.38 153.523 166.464L153.358 167.978ZM149.499 167.629L149.267 169.137C148.222 169.018 147.182 168.882 146.146 168.731L146.421 167.229L146.697 165.726C147.705 165.873 148.717 166.005 149.732 166.121L149.499 167.629ZM131.288 164.023L130.849 165.491C128.844 164.952 126.851 164.378 124.868 163.781L125.348 162.324L125.827 160.866C127.788 161.457 129.753 162.023 131.727 162.554L131.288 164.023ZM110.669 157.561L110.147 159.005C109.171 158.677 108.197 158.349 107.223 158.023L107.743 156.579L108.264 155.135C109.239 155.461 110.215 155.79 111.19 156.118L110.669 157.561ZM107.743 156.579L107.221 158.022C105.452 157.426 103.69 156.813 101.934 156.189L102.479 154.753L103.023 153.317C104.766 153.937 106.513 154.545 108.266 155.135L107.743 156.579ZM76.4225 144.93L75.8522 146.356C74.1186 145.701 72.3837 145.052 70.6459 144.413L71.2045 142.982L71.7631 141.552C73.5105 142.194 75.2533 142.846 76.9927 143.504L76.4225 144.93ZM71.2045 142.982L70.6438 144.412C69.875 144.128 69.116 143.827 68.3673 143.511L68.9873 142.105L69.6072 140.698C70.3167 140.998 71.0362 141.283 71.7652 141.552L71.2045 142.982ZM58.666 136.223L57.7584 137.465C57.1013 136.977 56.4576 136.473 55.8279 135.955L56.7898 134.756L57.7518 133.556C58.3457 134.045 58.9531 134.52 59.5735 134.981L58.666 136.223ZM56.7898 134.756L55.8283 135.956C54.9659 135.246 54.2222 134.491 53.5855 133.695L54.7509 132.702L55.9163 131.709C56.426 132.347 57.0318 132.964 57.7514 133.556L56.7898 134.756ZM52.1025 118.508L50.6296 118.4C50.7466 117.383 50.8857 116.368 51.0249 115.372L52.4929 115.518L53.961 115.663C53.822 116.657 53.6876 117.64 53.5753 118.616L52.1025 118.508Z" fill="black"/>
<path d="M40.366 149.167C40.3123 150.005 39.6065 150.662 38.7896 150.636C37.9727 150.609 37.354 149.909 37.4077 149.071L38.8869 149.119L40.366 149.167ZM39.8727 126.911L38.4145 126.689L38.4146 126.689L39.8727 126.911ZM45.0028 92.1895L46.4844 92.0884L46.4844 92.0891L45.0028 92.1895ZM46.8049 65.8053L48.2872 65.735L48.2872 65.7374L46.8049 65.8053ZM65.2494 39.9586L64.3714 38.7674L65.2494 39.9586ZM112.422 24.1804L112.475 25.6939L112.422 24.1804ZM156.211 24.6343L156.635 23.1664L156.637 23.1668L156.211 24.6343ZM182.984 42.8043L181.808 43.7692L181.808 43.769L182.984 42.8043ZM218.16 79.2123L217.138 80.3464L217.137 80.3456L218.16 79.2123ZM238.931 111.051L237.488 111.448L237.487 111.447L238.931 111.051ZM234.451 135.309L233.214 134.517L233.214 134.516L234.451 135.309ZM184.335 178.054L184.897 179.438L184.896 179.438L184.335 178.054ZM152.526 183.423L152.474 184.94L152.474 184.94L152.526 183.423ZM105.31 185.036L105.171 183.531L105.173 183.531L105.31 185.036ZM78.309 189.196L78.4805 190.696L78.4793 190.696L78.309 189.196ZM44.7093 170.819L43.3764 171.529L43.3763 171.529L44.7093 170.819ZM37.5638 150.094C37.3856 149.283 37.8889 148.455 38.6879 148.244C39.487 148.034 40.2792 148.521 40.4575 149.333L39.0107 149.713L37.5638 150.094ZM37.5397 145.958C37.5597 145.12 38.2394 144.434 39.0578 144.426C39.8762 144.418 40.5235 145.09 40.5036 145.928L39.0216 145.943L37.5397 145.958ZM40.9029 130.181C40.8142 131.017 40.0825 131.644 39.2686 131.581C38.4548 131.519 37.8669 130.791 37.9556 129.955L39.4293 130.068L40.9029 130.181ZM39.3743 121.708C39.5429 120.883 40.329 120.331 41.1302 120.475C41.9313 120.62 42.4441 121.406 42.2755 122.232L40.8249 121.97L39.3743 121.708ZM46.4267 97.2222C46.3836 98.0601 45.6858 98.7266 44.8683 98.711C44.0507 98.6953 43.423 98.0034 43.4661 97.1656L44.9464 97.1939L46.4267 97.2222ZM43.5406 88.4101C43.5723 87.5721 44.2612 86.896 45.0793 86.9C45.8974 86.9039 46.5348 87.5864 46.5031 88.4244L45.0218 88.4173L43.5406 88.4101ZM48.1983 69.609C48.1542 70.4468 47.4558 71.1126 46.6383 71.096C45.8208 71.0795 45.1938 70.3869 45.2378 69.5491L46.718 69.579L48.1983 69.609ZM45.9381 60.821C46.1492 60.0045 46.9615 59.4953 47.7525 59.6836C48.5436 59.872 49.0137 60.6867 48.8025 61.5032L47.3703 61.1621L45.9381 60.821ZM62.511 44.0651C61.8647 44.6018 60.9334 44.515 60.4308 43.8714C59.9283 43.2278 60.0448 42.271 60.6911 41.7344L61.601 42.8997L62.511 44.0651ZM67.3576 36.5259C68.0395 36.0387 68.9596 36.1964 69.4126 36.8782C69.8657 37.56 69.6801 38.5077 68.9982 38.9949L68.1779 37.7604L67.3576 36.5259ZM84.6608 30.6918C83.881 30.9742 83.0467 30.5635 82.7972 29.7745C82.5477 28.9855 82.9776 28.117 83.7574 27.8346L84.2091 29.2632L84.6608 30.6918ZM90.815 25.6944C91.6163 25.4949 92.4019 25.993 92.5696 26.8069C92.7373 27.6208 92.2236 28.4423 91.4223 28.6418L91.1186 27.1681L90.815 25.6944ZM108.923 25.9719C108.106 26.0418 107.41 25.4215 107.369 24.5864C107.329 23.7514 107.959 23.0177 108.777 22.9478L108.85 24.4598L108.923 25.9719ZM115.503 22.431C116.321 22.3672 117.012 22.9928 117.046 23.8284C117.081 24.6639 116.445 25.393 115.627 25.4568L115.565 23.9439L115.503 22.431ZM131.304 24.3245C130.485 24.365 129.812 23.7194 129.8 22.8824C129.789 22.0454 130.443 21.334 131.261 21.2934L131.283 22.8089L131.304 24.3245ZM137.613 21.102C138.432 21.0959 139.077 21.7702 139.055 22.6082C139.033 23.4462 138.352 24.1304 137.534 24.1365L137.574 22.6192L137.613 21.102ZM152.835 25.4047C152.037 25.242 151.542 24.4438 151.728 23.6217C151.914 22.7997 152.711 22.2651 153.509 22.4277L153.172 23.9162L152.835 25.4047ZM161.239 24.6378C162 24.9197 162.373 25.788 162.071 26.5772C161.77 27.3663 160.908 27.7774 160.147 27.4955L160.693 26.0666L161.239 24.6378ZM178.851 40.2321C178.302 39.629 178.351 38.6685 178.959 38.0866C179.568 37.5048 180.505 37.5219 181.053 38.125L179.952 39.1785L178.851 40.2321ZM186.389 44.6593C186.903 45.2934 186.803 46.2516 186.166 46.7994C185.528 47.3472 184.595 47.2773 184.081 46.6431L185.235 45.6512L186.389 44.6593ZM196.251 60.2309C195.683 59.6474 195.701 58.6868 196.291 58.0853C196.881 57.4838 197.819 57.4692 198.387 58.0527L197.319 59.1418L196.251 60.2309ZM203.473 63.1554C204.054 63.7256 204.057 64.6856 203.48 65.2997C202.903 65.9139 201.964 65.9495 201.383 65.3793L202.428 64.2673L203.473 63.1554ZM214.503 77.8714C213.909 77.3149 213.886 76.3558 214.45 75.7293C215.014 75.1028 215.953 75.0461 216.546 75.6026L215.524 76.737L214.503 77.8714ZM223.145 81.9409C223.716 82.5214 223.703 83.4819 223.116 84.0863C222.529 84.6907 221.59 84.7101 221.02 84.1296L222.082 83.0353L223.145 81.9409ZM235.961 106.276C235.68 105.499 236.076 104.615 236.845 104.301C237.614 103.986 238.465 104.361 238.746 105.138L237.353 105.707L235.961 106.276ZM241.018 114.353C241.115 115.181 240.535 115.956 239.722 116.083C238.909 116.21 238.171 115.642 238.074 114.814L239.546 114.583L241.018 114.353ZM234.944 131.479C235.326 130.726 236.223 130.412 236.947 130.778C237.671 131.145 237.947 132.053 237.564 132.806L236.254 132.143L234.944 131.479ZM232.999 140.166C232.518 140.86 231.591 141.042 230.929 140.573C230.266 140.103 230.12 139.16 230.602 138.466L231.8 139.316L232.999 140.166ZM215.102 156.224C215.722 155.656 216.658 155.694 217.193 156.309C217.727 156.924 217.658 157.884 217.039 158.453L216.07 157.339L215.102 156.224ZM209.627 164.687C208.962 165.199 208.036 165.077 207.558 164.414C207.08 163.751 207.231 162.798 207.895 162.285L208.761 163.486L209.627 164.687ZM188.001 174.662C188.747 174.291 189.625 174.599 189.962 175.351C190.299 176.102 189.967 177.012 189.221 177.383L188.611 176.022L188.001 174.662ZM180.41 181.216C179.626 181.484 178.799 181.059 178.563 180.265C178.327 179.472 178.771 178.61 179.555 178.341L179.983 179.778L180.41 181.216ZM157.153 181.847C157.972 181.825 158.631 182.485 158.625 183.323C158.62 184.161 157.951 184.858 157.133 184.881L157.143 183.364L157.153 181.847ZM149.097 184.931C148.279 184.928 147.641 184.246 147.672 183.408C147.703 182.57 148.391 181.893 149.21 181.896L149.153 183.414L149.097 184.931ZM132.323 181.889C133.141 181.88 133.789 182.553 133.77 183.391C133.75 184.229 133.071 184.915 132.253 184.924L132.288 183.406L132.323 181.889ZM125.53 185.054C124.712 185.078 124.051 184.419 124.056 183.581C124.06 182.743 124.727 182.045 125.546 182.021L125.538 183.538L125.53 185.054ZM108.567 183.126C109.384 183.038 110.094 183.641 110.152 184.475C110.211 185.308 109.597 186.055 108.78 186.144L108.674 184.635L108.567 183.126ZM101.602 187.069C100.787 187.185 100.058 186.607 99.9717 185.777C99.8857 184.947 100.476 184.18 101.29 184.064L101.446 185.566L101.602 187.069ZM81.9863 187.092C82.799 186.963 83.5379 187.529 83.6367 188.357C83.7354 189.185 83.1567 189.961 82.344 190.09L82.1651 188.591L81.9863 187.092ZM75.4072 191.086C74.5901 191.167 73.8862 190.557 73.8349 189.723C73.7836 188.889 74.4044 188.147 75.2214 188.066L75.3143 189.576L75.4072 191.086ZM61.147 186.581C61.9012 186.881 62.2544 187.758 61.9359 188.54C61.6175 189.323 60.7479 189.715 59.9937 189.415L60.5703 187.998L61.147 186.581ZM54.4918 186.33C53.8419 185.843 53.7187 184.895 54.2165 184.213C54.7144 183.531 55.6448 183.373 56.2947 183.859L55.3933 185.094L54.4918 186.33ZM47.3836 172.738C47.7736 173.461 47.5061 174.391 46.7863 174.815C46.0664 175.239 45.1667 174.997 44.7768 174.274L46.0802 173.506L47.3836 172.738ZM42.0939 168.558C41.7979 167.787 42.1767 166.896 42.94 166.566C43.7033 166.237 44.5621 166.594 44.8581 167.365L43.476 167.961L42.0939 168.558ZM41.1052 152.431C41.2692 153.246 40.752 154.066 39.9499 154.261C39.1478 154.457 38.3646 153.955 38.2006 153.14L39.6529 152.786L41.1052 152.431ZM38.8869 149.119L37.4077 149.071C37.4741 148.037 37.5149 147 37.5397 145.958L39.0216 145.943L40.5036 145.928C40.478 147.002 40.4357 148.082 40.366 149.167L38.8869 149.119ZM39.4293 130.068L37.9556 129.955C38.0705 128.873 38.22 127.784 38.4145 126.689L39.8727 126.911L41.3308 127.133C41.1507 128.147 41.011 129.163 40.9029 130.181L39.4293 130.068ZM39.8727 126.911L38.4146 126.689C38.7116 125.021 39.0369 123.36 39.3743 121.708L40.8249 121.97L42.2755 122.232C41.9413 123.868 41.6216 125.5 41.3307 127.134L39.8727 126.911ZM44.9464 97.1939L43.4661 97.1656C43.5496 95.5457 43.5725 93.9213 43.5212 92.2898L45.0028 92.1895L46.4844 92.0891C46.5387 93.8141 46.5142 95.5247 46.4267 97.2222L44.9464 97.1939ZM45.0028 92.1895L43.5213 92.2906C43.48 90.9977 43.4916 89.703 43.5406 88.4101L45.0218 88.4173L46.5031 88.4244C46.4563 89.6578 46.4458 90.8792 46.4844 92.0884L45.0028 92.1895ZM46.718 69.579L45.2378 69.5491C45.3028 68.3128 45.3353 67.0874 45.3226 65.8731L46.8049 65.8053L48.2872 65.7374C48.3007 67.0282 48.266 68.32 48.1983 69.609L46.718 69.579ZM46.8049 65.8053L45.3227 65.8755C45.3018 64.1335 45.5167 62.451 45.9381 60.821L47.3703 61.1621L48.8025 61.5032C48.4491 62.8703 48.2697 64.2761 48.2872 65.735L46.8049 65.8053ZM61.601 42.8997L60.6911 41.7344C61.8824 40.7452 63.1134 39.7574 64.3714 38.7674L65.2494 39.9586L66.1275 41.1498C64.8841 42.1282 63.6755 43.0982 62.511 44.0651L61.601 42.8997ZM65.2494 39.9586L64.3714 38.7674C65.37 37.9816 66.365 37.2351 67.3576 36.5259L68.1779 37.7604L68.9982 38.9949C68.0456 39.6755 67.0891 40.3931 66.1275 41.1498L65.2494 39.9586ZM84.2091 29.2632L83.7574 27.8346C86.0908 26.9896 88.4387 26.286 90.815 25.6944L91.1186 27.1681L91.4223 28.6418C89.1372 29.2107 86.8887 29.8849 84.6608 30.6918L84.2091 29.2632ZM108.85 24.4598L108.777 22.9478C109.96 22.8466 111.157 22.7538 112.368 22.6668L112.422 24.1804L112.475 25.6939C111.275 25.7802 110.091 25.872 108.923 25.9719L108.85 24.4598ZM112.422 24.1804L112.368 22.6668C113.412 22.5917 114.457 22.5125 115.503 22.431L115.565 23.9439L115.627 25.4568C114.578 25.5386 113.527 25.6184 112.475 25.6939L112.422 24.1804ZM131.283 22.8089L131.261 21.2934C133.394 21.1877 135.514 21.1176 137.613 21.102L137.574 22.6192L137.534 24.1365C135.484 24.1518 133.406 24.2204 131.304 24.3245L131.283 22.8089ZM153.172 23.9162L153.509 22.4277C154.561 22.6424 155.604 22.8876 156.635 23.1664L156.211 24.6343L155.788 26.1023C154.817 25.8398 153.832 25.6081 152.835 25.4047L153.172 23.9162ZM156.211 24.6343L156.637 23.1668C158.216 23.5956 159.75 24.0861 161.239 24.6378L160.693 26.0666L160.147 27.4955C158.739 26.9738 157.286 26.509 155.786 26.1019L156.211 24.6343ZM179.952 39.1785L181.053 38.125C182.126 39.3059 183.161 40.5444 184.16 41.8396L182.984 42.8043L181.808 43.769C180.855 42.5327 179.87 41.3537 178.851 40.2321L179.952 39.1785ZM182.984 42.8043L184.159 41.8394C184.892 42.7887 185.635 43.7284 186.389 44.6593L185.235 45.6512L184.081 46.6431C183.313 45.6951 182.555 44.7374 181.808 43.7692L182.984 42.8043ZM197.319 59.1418L198.387 58.0527C200.059 59.7713 201.757 61.4701 203.473 63.1554L202.428 64.2673L201.383 65.3793C199.655 63.6816 197.941 61.9675 196.251 60.2309L197.319 59.1418ZM215.524 76.737L216.546 75.6026C217.425 76.4273 218.304 77.2527 219.183 78.0791L218.16 79.2123L217.137 80.3456C216.26 79.5204 215.382 78.6961 214.503 77.8714L215.524 76.737ZM218.16 79.2123L219.182 78.0783C220.525 79.3388 221.85 80.6244 223.145 81.9409L222.082 83.0353L221.02 84.1296C219.756 82.8449 218.459 81.586 217.138 80.3464L218.16 79.2123ZM237.353 105.707L238.746 105.138C239.388 106.914 239.935 108.751 240.374 110.655L238.931 111.051L237.487 111.447C237.076 109.664 236.564 107.942 235.961 106.276L237.353 105.707ZM238.931 111.051L240.374 110.654C240.66 111.894 240.875 113.127 241.018 114.353L239.546 114.583L238.074 114.814C237.945 113.703 237.75 112.581 237.488 111.448L238.931 111.051ZM236.254 132.143L237.564 132.806C237.001 133.916 236.375 135.014 235.688 136.101L234.451 135.309L233.214 134.516C233.85 133.509 234.427 132.496 234.944 131.479L236.254 132.143ZM234.451 135.309L235.689 136.101C234.818 137.482 233.921 138.837 232.999 140.166L231.8 139.316L230.602 138.466C231.497 137.175 232.368 135.859 233.214 134.517L234.451 135.309ZM216.07 157.339L217.039 158.453C214.658 160.637 212.186 162.715 209.627 164.687L208.761 163.486L207.895 162.285C210.385 160.367 212.789 158.347 215.102 156.224L216.07 157.339ZM188.611 176.022L189.221 177.383C187.797 178.091 186.355 178.776 184.897 179.438L184.335 178.054L183.773 176.671C185.199 176.023 186.609 175.354 188.001 174.662L188.611 176.022ZM184.335 178.054L184.896 179.438C183.424 180.106 181.927 180.695 180.41 181.216L179.983 179.778L179.555 178.341C180.987 177.85 182.394 177.296 183.774 176.67L184.335 178.054ZM157.143 183.364L157.133 184.881C155.577 184.924 154.023 184.942 152.474 184.94L152.526 183.423L152.578 181.905C154.103 181.907 155.629 181.89 157.153 181.847L157.143 183.364ZM152.526 183.423L152.474 184.94C151.348 184.939 150.223 184.935 149.097 184.931L149.153 183.414L149.21 181.896C150.333 181.901 151.456 181.904 152.579 181.905L152.526 183.423ZM132.288 183.406L132.253 184.924C130.01 184.948 127.769 184.988 125.53 185.054L125.538 183.538L125.546 182.021C127.807 181.954 130.066 181.913 132.323 181.889L132.288 183.406ZM108.674 184.635L108.78 186.144C107.669 186.265 106.557 186.397 105.447 186.541L105.31 185.036L105.173 183.531C106.304 183.384 107.436 183.249 108.567 183.126L108.674 184.635ZM105.31 185.036L105.449 186.541C104.168 186.709 102.886 186.886 101.602 187.069L101.446 185.566L101.29 184.064C102.584 183.879 103.878 183.701 105.171 183.531L105.31 185.036ZM82.1651 188.591L82.344 190.09C81.0566 190.295 79.7686 190.498 78.4805 190.696L78.309 189.196L78.1374 187.696C79.4194 187.498 80.7023 187.296 81.9863 187.092L82.1651 188.591ZM78.309 189.196L78.4793 190.696C77.4279 190.857 76.4043 190.987 75.4072 191.086L75.3143 189.576L75.2214 188.066C76.1635 187.972 77.1354 187.849 78.1387 187.695L78.309 189.196ZM60.5703 187.998L59.9937 189.415C58.0096 188.627 56.1847 187.597 54.4918 186.33L55.3933 185.094L56.2947 183.859C57.7922 184.98 59.3995 185.887 61.147 186.581L60.5703 187.998ZM46.0802 173.506L44.7768 174.274C44.3007 173.391 43.8345 172.476 43.3764 171.529L44.7093 170.819L46.0422 170.109C46.4832 171.021 46.9298 171.897 47.3836 172.738L46.0802 173.506ZM44.7093 170.819L43.3763 171.529C42.9028 170.55 42.4783 169.558 42.0939 168.558L43.476 167.961L44.8581 167.365C45.2155 168.295 45.6077 169.211 46.0423 170.109L44.7093 170.819ZM39.6529 152.786L38.2006 153.14C37.9947 152.118 37.7855 151.102 37.5638 150.094L39.0107 149.713L40.4575 149.333C40.6845 150.366 40.8977 151.401 41.1052 152.431L39.6529 152.786Z" fill="black"/>
<path d="M150.348 105.422C151.528 113.175 147.625 119.183 143.042 126.098C141.851 127.932 140.622 130.101 141.281 132.139C142.003 134.217 144.306 135.25 146.373 135.952C147.617 136.394 148.944 136.71 150.222 136.546C153.302 136.106 156.006 131.389 157.231 128.949C158.844 125.772 159.949 122.268 162.111 119.356C166.414 113.426 174.415 119.559 179.79 121.133C181.139 121.553 185.15 123.147 186.521 122.146C188.434 120.866 185.552 118.922 185.151 117.319C189.248 117.533 193.108 117.417 196.991 115.879C198.347 115.317 199.722 114.588 200.798 113.486C201.81 112.344 202.483 110.893 202.314 109.35C201.482 103.973 192.428 107.922 189.42 108.946C184.509 110.54 179.48 112.595 174.206 112.251C172.652 112.148 170.902 111.65 170.461 110.111C170.086 108.883 170.99 107.492 172.178 106.912C173.367 106.331 174.667 106.271 176.009 106.148C183.371 105.773 190.722 104.583 197.893 102.561C204.855 100.584 211.907 99.0225 217.762 94.4496C222.35 90.8552 225.887 85.6882 226.729 79.9532C227.229 76.6878 225.399 72.0138 221.753 75.407C217.09 79.6708 213.852 85.2096 209.68 89.9678C205.57 94.7669 200.09 99.0422 193.796 99.2976C192.013 99.4062 197.985 89.7977 198.086 89.5039C198.575 88.4736 198.848 86.945 197.894 86.3317C196.728 85.4917 195.256 86.7865 194.516 87.9248C192.69 90.8747 191.443 94.7354 188.23 96.0755C187.268 93.3946 191.169 90.165 189.228 88.0199C188.054 86.637 185.569 87.5491 184.774 89.1895C183.915 90.789 184.173 92.7487 184.178 94.545C184.182 96.3412 183.813 98.4352 182.315 99.3543C180.297 100.657 177.441 99.0885 176.633 96.8649C175.825 94.6413 176.441 92.168 177.333 89.9623C179.685 84.1226 184.31 78.6688 190.551 77.6621C195.618 76.7973 200.855 79.0005 205.99 78.448C207.436 78.3024 209.088 77.8406 209.932 76.6799C210.881 75.4969 210.727 73.5148 209.374 72.8236C208.824 72.5598 208.278 72.5674 207.669 72.5342C205.423 72.524 203.241 72.5546 200.994 72.5443C201.251 69.9298 204.45 69.0286 206.939 68.3879C212.544 66.9724 218.373 63.5486 219.679 57.9325C219.757 57.5345 219.877 57.0733 219.682 56.6792C219.289 55.6195 217.798 55.5569 216.711 55.8437C211.255 57.445 208.039 63.088 203.72 66.407C199.588 69.5772 194.424 72.5321 189.143 73.1702C185.728 73.5732 185.57 71.3196 187.168 68.5818C188.644 66.0338 191.412 64.4075 194.062 63.2424C197.357 61.7758 200.93 60.5768 203.455 58.0767C206.063 55.45 207.287 51.4852 210.257 49.2712C212.48 47.6525 215.392 47.1939 217.573 45.6385C219.86 44.0608 221.088 40.3674 218.882 38.7691C216.718 37.1076 213.703 39.1134 211.842 41.1446C206.261 47.2385 201.555 54.3436 194.564 58.7236C193.814 51.6951 202.987 47.2845 203.937 40.2739C204.146 38.7044 203.465 36.5626 201.787 36.6488C201.137 36.6788 200.617 37.0621 200.098 37.4453C196.963 39.9123 195.612 43.7954 194.448 47.5297C193.302 51.0966 190.821 53.805 188.808 56.9037C184.33 63.7967 180.55 71.1394 177.384 78.7869C175.032 84.6265 172.957 90.7339 168.612 95.2021C167.805 96.028 166.557 96.8393 165.604 96.226C165.032 95.8581 164.875 95.1292 164.844 94.4821C164.585 90.9976 166.849 87.791 168.843 84.8596C170.797 81.9915 172.425 78.3761 173.47 75.103C174.534 71.6625 171.27 69.4734 173.089 65.9806C174.601 63.0978 176.899 60.8097 179.174 58.4175C182.977 54.2284 186.48 49.6676 189.498 44.8838C191.242 42.0604 196.59 31.3328 190.4 30.0411C188.337 29.6106 186.256 30.8721 185.02 32.4978C183.742 34.1867 183.205 36.2621 182.645 38.2334C181.503 42.0718 180.234 45.8284 178.796 49.5665C177.785 52.2334 175.261 59.3079 171.123 57.6323C167.639 56.1982 168.444 49.2732 168.256 46.3725C167.982 43.3268 167.109 39.5376 164.101 39.0367C161.324 38.5953 159.202 41.4449 158.336 44.0262C156.425 49.8806 157.294 56.4479 160.705 61.6009C161.67 63.0286 162.844 64.4116 163.308 66.0552C163.836 67.7396 163.571 69.8112 162.073 70.7304C161.254 69.2171 159.164 68.4109 157.535 68.9769C155.865 69.6061 154.8 71.5218 155.16 73.1877C155.654 75.4784 158.065 76.7604 159.643 78.4928C162.073 81.1323 162.509 85.1783 161.845 88.6967C161.416 91.0212 160.214 93.5654 157.893 94.2246C156.346 94.6641 154.66 94.2073 153.367 93.2856C149.595 90.7694 148.326 85.6489 148.933 81.1078C149.499 76.63 151.56 72.4863 152.968 68.1011C154.397 63.82 155.21 58.9627 153.388 54.8317C153.171 54.3334 152.891 53.7943 152.423 53.404C151.021 52.2331 148.809 53.1414 147.887 54.7C146.964 56.2587 147.096 58.1367 147.1 59.9329C147.174 65.0911 146.574 70.1751 145.406 75.1627C145.07 76.6504 144.006 78.5661 142.488 78.1279C141.793 77.9496 141.363 77.2246 141.101 76.5181C139.059 71.6174 141.269 66.1348 141.719 60.8648C141.79 59.9239 141.774 58.838 141.176 58.0944C139.852 56.5256 137.244 57.6274 136.008 59.2531C134.278 61.6377 133.988 64.8584 134.385 67.7144C134.715 70.258 135.819 72.5819 136.294 75.0399C137.13 79.1639 135.738 77.2826 132.884 78.7639C129.883 80.3308 132.556 82.3194 134.575 84.0665C141.739 90.3783 148.883 95.3328 150.348 105.422Z" fill="#0C3F5E"/>
<path d="M111.94 170.267C107.534 172.779 101.888 174.651 96.7119 174.311C96.5408 171.544 96.6691 168.735 97.1396 165.968C95.7708 168.607 94.7442 171.416 94.0598 174.311C93.9742 174.694 87.6434 173.587 87.0446 173.46C85.5474 173.162 84.1786 172.523 82.6815 172.31C82.8526 170.821 83.8364 169.544 84.0075 168.096C83.0664 169.161 82.2109 170.352 81.5265 171.629C81.3554 171.927 77.8906 170.395 77.5912 170.267C76.1368 169.544 74.7252 168.692 73.3564 167.756C71.3887 166.394 69.9343 164.564 68.0094 163.244C69.3782 160.818 70.7471 158.392 72.1587 155.965C70.0627 156.944 68.0094 158.051 66.0845 159.328C65.8279 159.498 65.5712 159.669 65.2718 159.583C65.1435 159.541 65.0151 159.413 64.9296 159.328C63.518 157.796 62.4058 156.051 61.4648 154.22C60.3954 152.135 59.8821 150.262 59.4543 148.006C60.8231 147.112 62.1919 146.261 63.5608 145.367C61.807 145.58 60.0532 145.792 58.3421 146.005C56.2461 138.301 56.4172 129.66 58.7699 121.999C59.1121 120.934 59.4971 119.828 60.267 119.062C61.2937 118.083 62.8336 117.827 64.2452 117.614C76.6929 115.827 90.21 114.379 101.118 120.637C107.876 124.51 112.881 131.15 115.405 138.514C117.886 145.878 121.509 162.027 111.94 170.267Z" fill="#0C3F5E"/>
</g>
<path d="M52.109 84.0213C49.7737 69.4383 61.0383 56.2264 75.8071 56.2264H91.9727C103.763 56.2264 113.807 64.79 115.671 76.4316L126.336 143.031C128.671 157.614 117.406 170.826 102.638 170.826H86.4719C74.682 170.826 64.638 162.263 62.7738 150.621L52.109 84.0213Z" fill="#0C3F5E"/>
<path d="M115.671 76.4316L114.19 76.6688L115.671 76.4316ZM75.8071 56.2264V57.7264H91.9727V56.2264V54.7264H75.8071V56.2264ZM115.671 76.4316L114.19 76.6688L124.854 143.268L126.336 143.031L127.817 142.794L117.152 76.1944L115.671 76.4316ZM102.638 170.826V169.326H86.4719V170.826V172.326H102.638V170.826ZM62.7738 150.621L64.255 150.384L53.5901 83.7841L52.109 84.0213L50.6278 84.2585L61.2927 150.858L62.7738 150.621ZM86.4719 170.826V169.326C75.4188 169.326 66.0027 161.298 64.255 150.384L62.7738 150.621L61.2927 150.858C63.2734 163.227 73.9451 172.326 86.4719 172.326V170.826ZM126.336 143.031L124.854 143.268C127.044 156.94 116.483 169.326 102.638 169.326V170.826V172.326C118.329 172.326 130.298 158.288 127.817 142.794L126.336 143.031ZM91.9727 56.2264V57.7264C103.026 57.7264 112.442 65.7548 114.19 76.6688L115.671 76.4316L117.152 76.1944C115.171 63.8252 104.499 54.7264 91.9727 54.7264V56.2264ZM75.8071 56.2264V54.7264C60.1153 54.7264 48.1467 68.7641 50.6278 84.2585L52.109 84.0213L53.5901 83.7841C51.4008 70.1126 61.9613 57.7264 75.8071 57.7264V56.2264Z" fill="black"/>
<path d="M88.4974 65.2379L91.4231 65.2379" stroke="black" stroke-width="3" stroke-linejoin="round"/>
<path d="M68.6704 65.2379H83.8385" stroke="black" stroke-width="3" stroke-linejoin="round"/>
<path d="M56.7531 73.8666H121.53L134.643 155.687H69.8653L56.7531 73.8666Z" fill="white" stroke="black" stroke-width="3"/>
<path d="M101.382 85.6727L67.3112 85.6727L66.5827 81.4732L100.569 81.4733L101.382 85.6727Z" fill="#0C3F5E"/>
<path d="M116.22 95.0333L82.1489 95.0333L81.4204 90.8338L115.407 90.8338L116.22 95.0333Z" fill="#0C3F5E"/>
<path d="M101.382 85.6727L67.3112 85.6727L66.5827 81.4732L100.569 81.4733L101.382 85.6727Z" stroke="black" stroke-width="3"/>
<path d="M116.22 95.0333L82.1489 95.0333L81.4204 90.8338L115.407 90.8338L116.22 95.0333Z" stroke="black" stroke-width="3"/>
<path d="M124.258 147.663L90.1869 147.663L89.4585 143.463L123.445 143.463L124.258 147.663Z" fill="#0C3F5E" stroke="black" stroke-width="3"/>
<path fill-rule="evenodd" clip-rule="evenodd" d="M184.394 83.7439C184.394 83.744 184.395 83.7437 184.395 83.7432C185.283 80.4386 185.172 76.9449 184.075 73.7036C183.709 72.6222 183.239 71.5851 182.674 70.6057C182.672 70.6024 182.673 70.5981 182.676 70.5962C182.679 70.5943 182.681 70.59 182.679 70.5867C180.965 67.6273 178.413 65.2419 175.344 63.732C174.484 63.3088 173.594 62.9597 172.684 62.6862C171.437 62.3098 170.145 62.0736 168.832 61.9864C165.42 61.7598 162.017 62.5493 159.053 64.2553C159.05 64.2574 159.048 64.2619 159.05 64.2654C159.053 64.269 159.051 64.2735 159.048 64.2755C158.069 64.8413 157.143 65.5044 156.285 66.258C153.714 68.5164 151.871 71.4863 150.988 74.7923C150.988 74.7928 150.988 74.7934 150.989 74.7936C150.989 74.7937 150.989 74.7943 150.989 74.7949L145.912 93.7453C145.416 95.5952 146.514 97.4967 148.364 97.9923C150.213 98.488 152.115 97.3902 152.611 95.5403L157.688 76.5905C157.689 76.5864 157.693 76.584 157.698 76.5851C157.702 76.5862 157.706 76.5837 157.707 76.5796C158.236 74.6048 159.338 72.8308 160.874 71.4815C162.412 70.1304 164.316 69.2658 166.345 68.9968C167.805 68.8033 169.283 68.9244 170.681 69.3442C171.873 69.7045 172.996 70.2788 173.993 71.0455C175.616 72.2931 176.833 73.9939 177.489 75.9329C178.144 77.8694 178.212 79.9566 177.682 81.9312C177.681 81.9354 177.684 81.9397 177.688 81.9408C177.692 81.9419 177.695 81.9462 177.693 81.9504L172.616 100.9C172.12 102.75 173.218 104.651 175.068 105.147C176.918 105.642 178.819 104.545 179.315 102.695L184.393 83.7446C184.393 83.744 184.393 83.7437 184.394 83.7439Z" fill="#0C3F5E"/>
<path d="M184.075 73.7036L185.496 73.2227V73.2227L184.075 73.7036ZM175.344 63.732L176.007 62.3861V62.3861L175.344 63.732ZM172.684 62.6862L172.251 64.1222L172.253 64.1228L172.684 62.6862ZM168.832 61.9864L168.931 60.4897L168.931 60.4897L168.832 61.9864ZM156.285 66.258L157.275 67.3849L157.275 67.3849L156.285 66.258ZM160.874 71.4815L161.864 72.6084L161.864 72.6084L160.874 71.4815ZM166.345 68.9968L166.542 70.4838L166.542 70.4838L166.345 68.9968ZM170.681 69.3442L171.115 67.9083L171.112 67.9075L170.681 69.3442ZM173.993 71.0455L174.907 69.8563L174.907 69.8563L173.993 71.0455ZM177.489 75.9329L176.068 76.4138L176.068 76.4138L177.489 75.9329ZM172.616 100.9L171.167 100.512L172.616 100.9ZM177.688 81.9408L178.077 80.4923L177.688 81.9408ZM177.693 81.9504L176.245 81.5621L177.693 81.9504ZM177.682 81.9312L179.131 82.3196L177.682 81.9312ZM157.698 76.5851L158.085 75.1358L157.698 76.5851ZM157.707 76.5796L159.156 76.9676L157.707 76.5796ZM150.989 74.7936L151.375 73.3444L151.375 73.3444L150.989 74.7936ZM150.989 74.7949L149.54 74.4067L150.989 74.7949ZM150.988 74.7923L152.437 75.1793L150.988 74.7923ZM159.05 64.2654L157.751 65.0143L159.05 64.2654ZM159.048 64.2755L158.297 62.9768L159.048 64.2755ZM157.688 76.5905L159.137 76.9787L157.688 76.5905ZM182.676 70.5962L181.925 69.2978L182.676 70.5962ZM182.679 70.5867L181.381 71.3384L182.679 70.5867ZM159.053 64.2553L159.802 65.5553L159.053 64.2553ZM184.394 83.7439L184.784 82.2954L184.394 83.7439ZM182.674 70.6057L183.973 69.8562L182.674 70.6057ZM184.395 83.7432L182.947 83.3538L184.395 83.7432ZM184.075 73.7036L182.654 74.1846C183.656 77.1448 183.758 80.3357 182.947 83.3538L184.395 83.7432L185.844 84.1326C186.809 80.5416 186.688 76.7449 185.496 73.2227L184.075 73.7036ZM182.674 70.6057L181.374 71.3552C181.89 72.2497 182.32 73.1969 182.654 74.1846L184.075 73.7036L185.496 73.2227C185.098 72.0476 184.587 70.9206 183.973 69.8562L182.674 70.6057ZM182.679 70.5867L183.977 69.8351C182.114 66.6191 179.341 64.0269 176.007 62.3861L175.344 63.732L174.682 65.0779C177.484 66.4569 179.815 68.6355 181.381 71.3384L182.679 70.5867ZM175.344 63.732L176.007 62.3861C175.072 61.9262 174.105 61.5468 173.116 61.2497L172.684 62.6862L172.253 64.1228C173.084 64.3725 173.896 64.6913 174.682 65.0779L175.344 63.732ZM168.832 61.9864L168.733 63.4831C169.932 63.5627 171.112 63.7785 172.251 64.1222L172.684 62.6862L173.118 61.2502C171.762 60.8412 170.358 60.5844 168.931 60.4897L168.832 61.9864ZM159.053 64.2553L159.802 65.5553C162.508 63.9972 165.616 63.2761 168.733 63.4831L168.832 61.9864L168.931 60.4897C165.223 60.2434 161.525 61.1014 158.305 62.9553L159.053 64.2553ZM159.048 64.2755L158.297 62.9768C157.233 63.5916 156.227 64.3122 155.295 65.1311L156.285 66.258L157.275 67.3849C158.058 66.6966 158.904 66.091 159.798 65.5743L159.048 64.2755ZM156.285 66.258L155.295 65.1311C152.501 67.5853 150.498 70.8127 149.539 74.4052L150.988 74.7923L152.437 75.1793C153.243 72.16 154.927 69.4475 157.275 67.3849L156.285 66.258ZM150.989 74.7949L149.54 74.4067L144.463 93.3571L145.912 93.7453L147.36 94.1336L152.438 75.1832L150.989 74.7949ZM152.611 95.5403L154.059 95.9285L159.137 76.9787L157.688 76.5905L156.239 76.2023L151.162 95.1521L152.611 95.5403ZM157.707 76.5796L159.156 76.9676C159.608 75.2791 160.55 73.7622 161.864 72.6084L160.874 71.4815L159.884 70.3546C158.125 71.8995 156.864 73.9306 156.258 76.1915L157.707 76.5796ZM160.874 71.4815L161.864 72.6084C163.179 71.4531 164.807 70.7138 166.542 70.4838L166.345 68.9968L166.148 67.5098C163.824 67.8178 161.645 68.8077 159.884 70.3546L160.874 71.4815ZM166.345 68.9968L166.542 70.4838C167.79 70.3184 169.054 70.4219 170.249 70.7808L170.681 69.3442L171.112 67.9075C169.511 67.4269 167.819 67.2883 166.148 67.5098L166.345 68.9968ZM173.993 71.0455L174.907 69.8563C173.765 68.9785 172.479 68.3209 171.115 67.9083L170.681 69.3442L170.247 70.78C171.266 71.0881 172.226 71.5792 173.079 72.2347L173.993 71.0455ZM177.489 75.9329L178.91 75.452C178.158 73.232 176.765 71.2846 174.907 69.8563L173.993 71.0455L173.079 72.2347C174.467 73.3015 175.507 74.7558 176.068 76.4138L177.489 75.9329ZM177.682 81.9312L179.131 82.3196C179.737 80.0588 179.66 77.6691 178.91 75.452L177.489 75.9329L176.068 76.4138C176.629 78.0697 176.686 79.8544 176.234 81.5428L177.682 81.9312ZM172.616 100.9L174.065 101.288L179.142 82.3386L177.693 81.9504L176.245 81.5621L171.167 100.512L172.616 100.9ZM184.393 83.7446L182.944 83.3563L177.866 102.307L179.315 102.695L180.764 103.083L185.842 84.1328L184.393 83.7446ZM172.616 100.9L171.167 100.512C170.457 103.162 172.03 105.886 174.68 106.596L175.068 105.147L175.456 103.698C174.407 103.417 173.784 102.338 174.065 101.288L172.616 100.9ZM177.688 81.9408L177.298 83.3894C176.503 83.1755 176.031 82.3576 176.245 81.5621L177.693 81.9504L179.142 82.3386C179.358 81.5348 178.881 80.7084 178.077 80.4923L177.688 81.9408ZM177.682 81.9312L176.234 81.5428C176.019 82.3448 176.493 83.1727 177.298 83.3894L177.688 81.9408L178.077 80.4923C178.875 80.7066 179.344 81.526 179.131 82.3196L177.682 81.9312ZM157.698 76.5851L157.311 78.0343C158.117 78.2495 158.941 77.7696 159.156 76.9676L157.707 76.5796L156.258 76.1915C156.471 75.3978 157.287 74.9228 158.085 75.1358L157.698 76.5851ZM150.989 74.7936L150.602 76.2428C149.801 76.0291 149.326 75.2068 149.54 74.4067L150.989 74.7949L152.438 75.1832C152.653 74.3819 152.177 73.5584 151.375 73.3444L150.989 74.7936ZM150.988 74.7923L149.539 74.4052C149.325 75.2042 149.799 76.0284 150.602 76.2428L150.989 74.7936L151.375 73.3444C152.177 73.5585 152.65 74.3814 152.437 75.1793L150.988 74.7923ZM159.05 64.2654L157.751 65.0143C157.339 64.3004 157.584 63.3887 158.297 62.9768L159.048 64.2755L159.798 65.5743C160.518 65.1583 160.766 64.2375 160.35 63.5165L159.05 64.2654ZM157.688 76.5905L159.137 76.9787C158.924 77.7743 158.106 78.2468 157.311 78.0343L157.698 76.5851L158.085 75.1358C157.281 74.9211 156.455 75.3985 156.239 76.2023L157.688 76.5905ZM182.676 70.5962L183.427 71.8946C184.149 71.4772 184.393 70.5547 183.977 69.8351L182.679 70.5867L181.381 71.3384C180.968 70.6254 181.21 69.7114 181.925 69.2978L182.676 70.5962ZM159.053 64.2553L158.305 62.9553C157.584 63.3703 157.335 64.292 157.751 65.0143L159.05 64.2654L160.35 63.5165C160.762 64.2318 160.515 65.1444 159.802 65.5553L159.053 64.2553ZM148.364 97.9923L147.975 99.4412C150.625 100.151 153.349 98.5786 154.059 95.9285L152.611 95.5403L151.162 95.1521C150.88 96.2018 149.801 96.8247 148.752 96.5434L148.364 97.9923ZM184.393 83.7446L185.842 84.1328C185.627 84.933 184.804 85.4076 184.004 85.1924L184.394 83.7439L184.784 82.2954C183.982 82.0799 183.158 82.5551 182.944 83.3563L184.393 83.7446ZM182.674 70.6057L183.973 69.8562C184.384 70.5696 184.141 71.4819 183.427 71.8946L182.676 70.5962L181.925 69.2978C181.205 69.7144 180.959 70.6352 181.374 71.3552L182.674 70.6057ZM145.912 93.7453L144.463 93.3571C143.753 96.0072 145.325 98.7311 147.975 99.4412L148.364 97.9923L148.752 96.5434C147.702 96.2622 147.079 95.1832 147.36 94.1336L145.912 93.7453ZM175.068 105.147L174.68 106.596C177.33 107.306 180.054 105.733 180.764 103.083L179.315 102.695L177.866 102.307C177.585 103.356 176.506 103.979 175.456 103.698L175.068 105.147ZM184.395 83.7432L182.947 83.3538C183.161 82.5568 183.981 82.0796 184.784 82.2954L184.394 83.7439L184.004 85.1924C184.807 85.4084 185.629 84.9306 185.844 84.1326L184.395 83.7432Z" fill="black"/>
<path d="M135.179 104.283C132.272 115.013 138.614 126.068 149.343 128.975L158.613 131.486C169.342 134.393 180.397 128.051 183.304 117.322C186.211 106.592 179.87 95.5369 169.14 92.6299L159.871 90.1186C149.141 87.2116 138.086 93.5532 135.179 104.283Z" fill="white" stroke="black" stroke-width="3"/>
<mask id="path-18-inside-1_7_1574" fill="white">
<path fill-rule="evenodd" clip-rule="evenodd" d="M154.203 114.99C154.832 113.634 154.459 112.058 153.864 110.687C153.285 109.353 153.136 107.821 153.541 106.307C154.495 102.747 158.154 100.634 161.715 101.588C165.275 102.542 167.387 106.201 166.433 109.761C166.028 111.275 165.133 112.528 163.964 113.394C162.763 114.283 161.653 115.461 161.519 116.95C161.321 119.162 159.176 120.661 157.03 120.086L156.522 119.95C154.377 119.375 153.269 117.005 154.203 114.99Z"/>
</mask>
<path fill-rule="evenodd" clip-rule="evenodd" d="M154.203 114.99C154.832 113.634 154.459 112.058 153.864 110.687C153.285 109.353 153.136 107.821 153.541 106.307C154.495 102.747 158.154 100.634 161.715 101.588C165.275 102.542 167.387 106.201 166.433 109.761C166.028 111.275 165.133 112.528 163.964 113.394C162.763 114.283 161.653 115.461 161.519 116.95C161.321 119.162 159.176 120.661 157.03 120.086L156.522 119.95C154.377 119.375 153.269 117.005 154.203 114.99Z" fill="black"/>
<path d="M161.519 116.95L164.507 117.218L161.519 116.95ZM153.541 106.307L156.439 107.083C156.215 107.92 156.297 108.758 156.616 109.493L153.864 110.687L151.112 111.882C150.273 109.948 150.056 107.722 150.644 105.53L153.541 106.307ZM161.715 101.588L160.938 104.486C158.978 103.961 156.964 105.124 156.439 107.083L153.541 106.307L150.644 105.53C152.026 100.37 157.331 97.3076 162.491 98.6903L161.715 101.588ZM166.433 109.761L163.536 108.985C164.061 107.025 162.898 105.011 160.938 104.486L161.715 101.588L162.491 98.6903C167.651 100.073 170.714 105.377 169.331 110.538L166.433 109.761ZM163.964 113.394L162.178 110.983C162.822 110.506 163.311 109.821 163.536 108.985L166.433 109.761L169.331 110.538C168.744 112.73 167.444 114.549 165.75 115.804L163.964 113.394ZM156.522 119.95L157.299 117.052L157.807 117.188L157.03 120.086L156.254 122.984L155.746 122.848L156.522 119.95ZM161.519 116.95L164.507 117.218C164.143 121.285 160.198 124.041 156.254 122.984L157.03 120.086L157.807 117.188C158.153 117.281 158.499 117.039 158.531 116.682L161.519 116.95ZM163.964 113.394L165.75 115.804C165.286 116.148 164.951 116.468 164.74 116.749C164.539 117.017 164.512 117.165 164.507 117.218L161.519 116.95L158.531 116.682C158.785 113.848 160.825 111.986 162.178 110.983L163.964 113.394ZM156.522 119.95L155.746 122.848C151.801 121.791 149.763 117.432 151.481 113.728L154.203 114.99L156.925 116.252C156.774 116.577 156.953 116.959 157.299 117.052L156.522 119.95ZM153.864 110.687L156.616 109.493C157.286 111.038 158.122 113.67 156.925 116.252L154.203 114.99L151.481 113.728C151.504 113.679 151.554 113.538 151.514 113.205C151.472 112.857 151.342 112.412 151.112 111.882L153.864 110.687Z" fill="black" mask="url(#path-18-inside-1_7_1574)"/>
<defs>
<clipPath id="clip0_7_1574">
<rect width="264" height="218.855" rx="16" fill="white"/>
</clipPath>
</defs>
</svg>
